<svg width="90" height="90" viewBox="0 0 90 90" fill="none" xmlns="http://www.w3.org/2000/svg">
<path d="M62.5691 0.378984C60.9046 0.126387 59.2403 0 57.6226 0C52.8985 0 49.3335 1.04924 46.727 1.81828C46.098 2.00514 45.491 2.18355 44.9994 2.30449C44.5077 2.18355 43.9036 2.00514 43.2744 1.81828C40.6706 1.04924 37.1028 0 32.3786 0C30.7609 0 29.0936 0.126387 27.4293 0.378984C13.9216 2.40873 6.2586 15.1502 7.90392 32.8382C8.73607 41.7591 11.7848 49.1145 14.4766 55.6019C16.9567 61.5839 19.3023 67.2365 19.783 73.5564C20.9089 88.396 28.3385 90 31.4806 90C35.8284 90 39.8907 86.9073 41.5852 82.2985C42.3653 80.1891 42.6042 77.7282 42.8568 75.1189C43.0545 73.0617 43.5188 68.2469 44.5185 67.3954L44.5239 67.4009C44.5487 67.4009 44.7134 67.3624 44.999 67.3624C45.3121 67.3624 45.4824 67.4063 45.5209 67.4228C46.4795 68.2469 46.9463 73.0615 47.1441 75.1187C47.3995 77.728 47.6358 80.1889 48.4131 82.3038C50.1104 86.9071 54.1727 89.9996 58.5205 89.9996C61.6654 89.9996 69.0948 88.3956 70.2182 73.5558C70.6961 67.236 73.039 61.5836 75.5219 55.6014C78.2136 49.114 81.265 41.7586 82.0945 32.8377C83.7453 15.1502 76.0796 2.40609 62.5691 0.378984ZM76.1317 32.2806C74.6484 48.2026 65.3568 58.4364 64.2445 73.103C63.632 81.189 61.009 84.0069 58.5205 84.0069C56.6391 84.0069 54.8345 82.3975 54.0353 80.2276C52.1813 75.2013 54.4308 61.3751 44.999 61.3751C35.57 61.3751 37.8194 75.2013 35.9655 80.2276C35.1662 82.3975 33.3616 84.0069 31.4802 84.0069C28.9919 84.0069 26.3689 81.189 25.7563 73.103C24.6439 58.4362 15.3521 48.2026 13.8691 32.2806C12.438 16.9107 18.7415 7.74 28.3216 6.3007C29.7773 6.08098 31.1259 5.99027 32.3783 5.99027C38.3164 5.99027 42.1067 8.04744 44.9989 8.39637C47.8964 8.04762 51.684 5.99027 57.6222 5.99027C58.8747 5.99027 60.2205 6.08098 61.6789 6.3007C71.2594 7.73982 77.5655 16.9107 76.1317 32.2806Z" fill="#7D8894"/>
<path d="M55.4142 13.0792C55.2521 12.4805 54.634 12.1289 54.0381 12.2882C50.3907 13.277 47.8336 13.612 45.2902 14.2548C42.7468 13.6122 40.1897 13.277 36.5505 12.291C35.9492 12.1289 35.334 12.4805 35.1719 13.0792C35.0098 13.6779 35.3642 14.2988 35.9657 14.458C38.0037 15.0073 39.7093 15.3644 41.2172 15.6693C39.5473 16.4329 37.7401 17.4903 35.5922 19.0614C35.0923 19.4267 34.9824 20.1298 35.3505 20.6325C35.7158 21.1324 36.4189 21.2423 36.9188 20.8742C40.4729 18.2843 42.8157 17.2653 45.2904 16.5785C47.7678 17.2651 50.1107 18.2841 53.6674 20.8742C54.1673 21.2423 54.8731 21.1324 55.2385 20.6325C55.6038 20.13 55.4913 19.4295 54.9914 19.0614C52.8435 17.4903 51.0335 16.4329 49.3609 15.6693C50.8742 15.3645 52.58 15.0073 54.6235 14.458C55.2218 14.2933 55.5762 13.6781 55.4142 13.0792Z" fill="#7D8894"/>
</svg>
