<svg width="30" height="30" viewBox="-5 -5 40 40" fill="none" xmlns="http://www.w3.org/2000/svg">
<path d="M9 4.5C8.17031 4.5 7.5 5.17031 7.5 6V24C7.5 24.8297 8.17031 25.5 9 25.5H16.5C19.8141 25.5 22.5 22.8141 22.5 19.5C22.5 17.3203 21.3375 15.4078 19.5938 14.3578C20.4703 13.3125 21 11.9672 21 10.5C21 7.18594 18.3141 4.5 15 4.5H9ZM15 13.5H10.5V7.5H15C16.6547 7.5 18 8.84531 18 10.5C18 12.1547 16.6547 13.5 15 13.5ZM10.5 16.5H16.5C18.1547 16.5 19.5 17.8453 19.5 19.5C19.5 21.1547 18.1547 22.5 16.5 22.5H10.5V16.5Z" fill="white"/>
</svg>
