<svg width="40" height="40" viewBox="0 0 40 40" fill="none" xmlns="http://www.w3.org/2000/svg">
<path d="M7.9999 15.7875C7.9999 9.275 13.3749 4 19.9999 4C26.6249 4 31.9999 9.275 31.9999 15.7875C31.9999 23.2438 24.4874 32.1813 21.3499 35.5875C20.6124 36.3875 19.3812 36.3875 18.6437 35.5875C15.5062 32.1813 7.99365 23.2438 7.99365 15.7875H7.9999ZM19.9999 20C22.2062 20 23.9999 18.2063 23.9999 16C23.9999 13.7937 22.2062 12 19.9999 12C17.7937 12 15.9999 13.7937 15.9999 16C15.9999 18.2063 17.7937 20 19.9999 20Z" fill="black"/>
</svg>
