<svg width="40" height="40" viewBox="0 0 40 40" fill="none" xmlns="http://www.w3.org/2000/svg">
<path d="M14.0126 5.56253C13.5188 4.38128 12.2313 3.75628 11.0063 4.08753L10.6626 4.18128C6.62507 5.28128 3.17507 9.19378 4.18132 13.9563C6.50007 24.8938 15.1063 33.5 26.0438 35.8188C30.8126 36.8313 34.7188 33.375 35.8188 29.3375L35.9126 28.9938C36.2501 27.7625 35.6188 26.475 34.4438 25.9875L28.3626 23.4563C27.3313 23.025 26.1376 23.325 25.4251 24.1938L23.0126 27.1438C18.6188 24.9625 15.0813 21.3125 13.0501 16.8313L15.8126 14.5813C16.6813 13.875 16.9751 12.6813 16.5501 11.6438L14.0126 5.56253Z" fill="black"/>
</svg>
