<svg width="30" height="30" viewBox="-5 -5 40 40" fill="none" xmlns="http://www.w3.org/2000/svg">
<path d="M12.7734 4.5C12.7734 3.67031 13.4437 3 14.2734 3H15.7734C16.6031 3 17.2734 3.67031 17.2734 4.5V11.1047L22.9922 7.80469C23.7094 7.39219 24.6281 7.63594 25.0406 8.35312L25.7906 9.65156C26.2031 10.3687 25.9594 11.2875 25.2422 11.7L19.5234 15L25.2422 18.3C25.9594 18.7125 26.2078 19.6312 25.7906 20.3484L25.0406 21.6469C24.6281 22.3641 23.7094 22.6125 22.9922 22.1953L17.2734 18.8953V25.5C17.2734 26.3297 16.6031 27 15.7734 27H14.2734C13.4437 27 12.7734 26.3297 12.7734 25.5V18.8953L7.05468 22.1953C6.33749 22.6078 5.41874 22.3641 5.00624 21.6469L4.25624 20.3484C3.84374 19.6312 4.08749 18.7125 4.80468 18.3L10.5234 15L4.80468 11.7C4.08749 11.2875 3.84374 10.3687 4.25624 9.65156L5.00624 8.35312C5.41874 7.63594 6.33749 7.39219 7.05468 7.80469L12.7734 11.1047V4.5Z" fill="white"/>
</svg>
