<svg width="147" height="143" viewBox="0 0 147 143" fill="none" xmlns="http://www.w3.org/2000/svg">
<path d="M73.5023 0C75.907 0 78.1247 1.38755 79.2202 3.5641L98.8586 42.7964L141.582 49.7069C143.96 50.0878 145.937 51.8018 146.686 54.1416C147.434 56.4814 146.819 59.0389 145.136 60.7801L114.543 91.9319L121.303 135.436C121.677 137.857 120.688 140.306 118.738 141.748C116.787 143.19 114.195 143.407 112.058 142.292L73.5023 122.322L34.9469 142.292C32.8093 143.407 30.2176 143.19 28.2671 141.748C26.3166 140.306 25.328 137.884 25.7021 135.436L32.4353 91.9319L1.86877 60.7801C0.158758 59.0389 -0.429059 56.4814 0.319073 54.1416C1.0672 51.8018 3.01769 50.0878 5.4224 49.7069L48.146 42.7964L67.8112 3.5641C68.9067 1.38755 71.1243 0 73.529 0H73.5023ZM73.5023 20.8949L58.0588 51.693C57.1236 53.5431 55.3869 54.849 53.3562 55.1755L19.8239 60.6168L43.8176 85.0758C45.2604 86.545 45.9283 88.6399 45.6077 90.7076L40.3174 124.852L70.59 109.181C72.4068 108.229 74.5711 108.229 76.4147 109.181L106.687 124.852L101.397 90.7076C101.076 88.6399 101.744 86.545 103.187 85.0758L127.181 60.6168L93.6484 55.1755C91.6178 54.849 89.881 53.5431 88.9459 51.693L73.5023 20.8949Z" fill="#486892" fill-opacity="0.1"/>
</svg>
