<svg width="148" height="144" viewBox="0 0 148 144" fill="none" xmlns="http://www.w3.org/2000/svg">
<path d="M133.72 71.6093C133.72 103.75 106.89 129.792 73.7768 129.792C40.6637 129.792 13.8331 103.75 13.8331 71.6093C13.8331 39.469 40.6637 13.4267 73.7768 13.4267C106.89 13.4267 133.72 39.469 133.72 71.6093ZM0 71.6093C0 111.162 33.0266 143.219 73.7768 143.219C114.527 143.219 147.554 111.162 147.554 71.6093C147.554 32.0564 114.527 0 73.7768 0C33.0266 0 0 32.0564 0 71.6093ZM66.8602 33.5669V71.6093C66.8602 73.8471 68.0129 75.945 69.9438 77.2038L97.6101 95.1061C100.78 97.1761 105.074 96.3369 107.207 93.232C109.339 90.127 108.475 85.9871 105.276 83.9172L80.6933 68.0289V33.5669C80.6933 29.8465 77.6097 26.8535 73.7768 26.8535C69.9438 26.8535 66.8602 29.8465 66.8602 33.5669Z" fill="#486892" fill-opacity="0.1"/>
</svg>
