<svg width="1440" height="50" viewBox="0 0 1440 50" fill="none" xmlns="http://www.w3.org/2000/svg">
<path d="M0 26H1440.5" stroke="#486892" stroke-width="3"/>
<circle cx="744" cy="25" r="23.5" fill="white" stroke="#486892" stroke-width="3"/>
<path d="M731.726 9.05266C730.995 9.13977 730.296 9.41198 729.645 9.86384C728.93 10.3593 728.343 11.2848 728.119 12.2865C728.023 12.6894 728.017 13.0051 728.017 16.2335C728.017 19.647 728.023 19.7613 728.135 20.2676C728.423 21.5633 728.983 22.6304 729.853 23.5178C730.296 23.9697 731.048 24.5413 731.502 24.77C731.801 24.9224 731.838 24.9714 731.673 25.0258C731.491 25.0857 730.75 25.6029 730.339 25.9568C729.261 26.8877 728.524 28.129 728.161 29.6207L728.023 30.1978L728.007 33.4969C727.991 36.2462 728.001 36.8832 728.065 37.3514C728.22 38.4076 728.514 39.0337 729.17 39.7033C729.517 40.0517 729.672 40.166 730.184 40.4219C731.283 40.9772 731.192 40.9663 734.955 40.9936C738.557 41.0153 738.754 40.999 739.784 40.6669C741.241 40.1933 742.682 39.1262 743.658 37.7924C743.829 37.5583 743.984 37.3623 744 37.3623C744.016 37.3623 744.155 37.542 744.309 37.7597C745.259 39.0935 746.657 40.1443 748.136 40.6397C749.144 40.9772 749.149 40.9772 752.885 40.9772H756.3L756.829 40.8248C758.141 40.46 759.075 39.7142 759.582 38.6417C759.988 37.7706 760.02 37.3841 759.993 33.4643C759.977 30.3176 759.966 30.1161 759.865 29.6806C759.486 28.1236 758.771 26.9041 757.677 25.9731C757.197 25.5594 756.631 25.1619 756.391 25.0585C756.295 25.0149 756.22 24.9714 756.22 24.9496C756.22 24.9278 756.359 24.8462 756.53 24.7645C756.93 24.5685 757.698 23.9806 758.141 23.5287C759.043 22.6086 759.614 21.5143 759.892 20.1805C759.972 19.794 759.982 19.3258 759.982 16.2063C759.982 12.7166 759.982 12.6621 759.865 12.1885C759.481 10.6641 758.6 9.71685 757.138 9.24321C756.391 9.00367 755.964 8.98189 752.591 9.00911C749.181 9.03633 749.139 9.03633 748.13 9.37387C746.615 9.87473 745.211 10.9255 744.331 12.2048C744.197 12.4008 744.075 12.575 744.053 12.6023C744.037 12.624 743.872 12.4444 743.685 12.2103C743.194 11.5733 742.33 10.7458 741.721 10.3375C740.883 9.76585 740.062 9.40653 739.01 9.15066C738.551 9.03633 738.397 9.03089 735.328 9.01455C733.567 9.00911 731.945 9.02544 731.726 9.05266ZM739.517 9.42831C739.475 9.45553 739.416 9.48275 739.384 9.48275C739.357 9.48275 739.368 9.45553 739.41 9.42831C739.453 9.40109 739.517 9.37387 739.544 9.37387C739.576 9.37387 739.56 9.40109 739.517 9.42831ZM757.448 9.46098C757.448 9.47186 757.41 9.48275 757.367 9.48275C757.325 9.48275 757.287 9.46098 757.287 9.42831C757.287 9.40109 757.325 9.3902 757.367 9.40653C757.41 9.42831 757.448 9.45009 757.448 9.46098ZM748.285 9.46642C748.301 9.49364 748.237 9.51542 748.146 9.52086C748.007 9.5263 747.997 9.52086 748.082 9.48275C748.221 9.42287 748.258 9.41742 748.285 9.46642ZM738.519 9.89106C740.344 10.1742 742.212 11.4263 743.333 13.1195L743.557 13.4624L743.365 13.8599C743.103 14.3825 742.943 14.8888 742.826 15.553C742.74 16.0157 742.724 16.4077 742.719 18.1607C742.719 19.2986 742.708 20.235 742.698 20.2459C742.687 20.2567 742.367 19.9628 741.993 19.5871L741.305 18.9011L741.273 17.257C741.246 15.7381 741.236 15.5802 741.123 15.2263C740.793 14.1811 740.008 13.3209 738.989 12.8854C738.311 12.5968 738.188 12.5859 734.949 12.5859C731.972 12.5859 731.956 12.5859 731.854 12.7003C731.758 12.8091 731.753 12.9452 731.753 15.9831C731.753 19.5436 731.742 19.4456 732.164 20.3166C732.463 20.9373 733.066 21.5633 733.653 21.8573C734.405 22.233 734.688 22.2765 736.417 22.2765H737.943L738.647 22.9952C739.037 23.3926 739.357 23.7356 739.357 23.7573C739.357 23.7791 738.269 23.8009 736.945 23.8118C734.25 23.8336 734.352 23.8227 733.194 24.2636L732.665 24.4651L732.292 24.2854C731.699 23.9969 730.883 23.4144 730.435 22.9571C729.741 22.2493 729.335 21.5688 729.042 20.6161C728.807 19.843 728.78 19.3966 728.802 15.9069C728.818 13.0432 728.834 12.6295 728.914 12.3409C729.282 11.0452 730.168 10.1905 731.449 9.91829C731.865 9.82573 732.217 9.81485 734.955 9.81485C737.383 9.8094 738.103 9.82573 738.519 9.89106ZM740.851 9.92373C740.851 9.98361 740.835 9.98361 740.723 9.94006C740.601 9.89106 740.617 9.81485 740.745 9.84751C740.803 9.86384 740.851 9.89651 740.851 9.92373ZM756.54 9.91829C758.083 10.2395 759.022 11.3447 759.203 13.0323C759.235 13.3372 759.262 14.7527 759.262 16.3478C759.262 19.3693 759.225 19.8865 758.963 20.6868C758.691 21.5252 758.227 22.2874 757.602 22.9298C757.117 23.4307 756.663 23.7682 755.943 24.1657L755.398 24.4596L754.897 24.2636C753.808 23.839 753.803 23.839 751.071 23.8063L748.616 23.7737L749.368 23.0224L750.126 22.2765H751.636C753.317 22.2765 753.637 22.233 754.187 21.9553C755.153 21.4708 755.804 20.7195 756.119 19.745C756.242 19.3693 756.247 19.3421 756.263 16.0974C756.279 12.8472 756.279 12.8309 756.167 12.7057L756.055 12.5859H753.013C750.403 12.5859 749.918 12.5968 749.587 12.673C748.322 12.967 747.33 13.8653 746.897 15.1175C746.748 15.553 746.748 15.553 746.732 17.2189L746.716 18.8848L746.022 19.5871L745.334 20.2894V18.4221C745.334 17.3931 745.307 16.3206 745.275 16.0321C745.195 15.2753 744.998 14.5404 744.72 13.9524L744.475 13.4352L744.731 13.0541C745.19 12.3682 745.846 11.6386 746.401 11.1977C747.298 10.4899 748.461 9.98906 749.491 9.86384C749.683 9.84207 751.236 9.82029 752.938 9.81485C755.82 9.8094 756.071 9.82029 756.54 9.91829ZM742.671 11.2086C742.74 11.2957 742.735 11.3011 742.655 11.2303C742.602 11.1922 742.559 11.1487 742.559 11.1378C742.559 11.0942 742.602 11.1214 742.671 11.2086ZM738.653 12.8527C738.711 12.8854 738.706 12.9071 738.631 12.9343C738.583 12.9507 738.53 12.9561 738.514 12.9398C738.498 12.9235 738.519 12.9126 738.562 12.9126C738.621 12.9126 738.621 12.9017 738.557 12.8581C738.514 12.8309 738.503 12.8037 738.53 12.8037C738.562 12.8037 738.615 12.8255 738.653 12.8527ZM759.886 12.9235C759.87 12.967 759.854 12.9507 759.854 12.8908C759.849 12.8309 759.865 12.7982 759.881 12.82C759.897 12.8364 759.902 12.8854 759.886 12.9235ZM753.355 13.2773C753.317 13.2882 753.253 13.2882 753.221 13.2773C753.184 13.261 753.21 13.2501 753.285 13.2501C753.36 13.2501 753.387 13.261 753.355 13.2773ZM738.252 13.4733C739.154 13.7401 739.859 14.3281 740.232 15.1229C740.478 15.6455 740.531 16.0974 740.531 17.649C740.531 18.7378 740.547 19.108 740.606 19.2441C740.649 19.3421 741.374 20.1206 742.244 21.0026C743.77 22.5433 743.978 22.7175 744.155 22.6086C744.187 22.5868 744.907 21.8737 745.761 21.0244C746.78 20.0063 747.346 19.402 747.415 19.255C747.516 19.0481 747.522 18.9175 747.522 17.4639C747.522 16.2117 747.538 15.8306 747.607 15.5584C747.831 14.6601 748.514 13.9143 749.406 13.5713C749.913 13.3808 750.59 13.3427 753.098 13.359L755.446 13.3753L755.462 16.1791C755.468 18.041 755.457 19.0808 755.414 19.2714C755.27 19.9954 754.699 20.7685 754.054 21.1169C753.472 21.4327 753.274 21.4599 751.519 21.4599C750.521 21.4599 749.875 21.4817 749.779 21.5198C749.608 21.5851 746.417 24.8081 746.369 24.9605C746.342 25.0476 746.657 25.396 747.901 26.67C748.888 27.6771 749.55 28.3087 749.688 28.374C749.886 28.472 750.019 28.4829 751.423 28.4829C753.066 28.4829 753.376 28.521 753.893 28.7877C754.48 29.0872 754.902 29.5282 755.19 30.127C755.468 30.7095 755.473 30.7585 755.473 33.7474V36.5402H752.709C749.704 36.5402 749.651 36.5348 749.027 36.2245C748.621 36.0285 748.061 35.4786 747.853 35.0812C747.559 34.515 747.527 34.2863 747.516 32.6259C747.511 31.7984 747.495 31.0253 747.484 30.9055C747.458 30.7041 747.33 30.5625 745.82 29.011C744.336 27.4975 744.171 27.3396 744.01 27.3396C743.85 27.3396 743.685 27.492 742.313 28.8749C741.476 29.7241 740.734 30.5135 740.665 30.6333C740.542 30.8456 740.536 30.8837 740.515 32.5116C740.499 33.9053 740.483 34.221 740.403 34.4715C740.094 35.4568 739.325 36.2027 738.359 36.4586C738.108 36.5239 737.564 36.5402 735.285 36.5402H732.521L732.537 33.7202C732.553 30.9327 732.559 30.9001 732.681 30.5517C733.033 29.5336 733.813 28.7986 734.779 28.5645C735.035 28.5047 735.483 28.4829 736.625 28.4829C737.799 28.4829 738.172 28.4665 738.306 28.4067C738.402 28.3631 739.192 27.5955 740.072 26.6972C741.454 25.2817 741.662 25.0476 741.636 24.9387C741.593 24.7754 738.461 21.5906 738.269 21.5143C738.178 21.4817 737.484 21.4599 736.507 21.4599C735.179 21.4599 734.843 21.4436 734.602 21.3728C733.631 21.0788 732.943 20.3765 732.649 19.3857C732.575 19.1353 732.559 18.6779 732.543 16.2934C732.532 14.7581 732.532 13.4624 732.548 13.4189C732.596 13.2937 737.81 13.3427 738.252 13.4733ZM759.886 13.6584C759.87 13.7129 759.86 13.6802 759.86 13.5931C759.86 13.5005 759.87 13.4624 759.886 13.4951C759.897 13.5332 759.897 13.6094 759.886 13.6584ZM748.482 14.0232C748.482 14.0341 748.44 14.0776 748.392 14.1157C748.306 14.1865 748.301 14.1811 748.37 14.094C748.44 14.0068 748.482 13.9796 748.482 14.0232ZM759.886 14.1212C759.87 14.1647 759.854 14.1484 759.854 14.0885C759.849 14.0286 759.865 13.996 759.881 14.0177C759.897 14.0341 759.902 14.0831 759.886 14.1212ZM759.886 14.3389C759.87 14.3825 759.854 14.3662 759.854 14.3063C759.849 14.2464 759.865 14.2137 759.881 14.2355C759.897 14.2518 759.902 14.3008 759.886 14.3389ZM744.181 14.7309C744.491 15.5312 744.496 15.553 744.517 18.4057L744.539 21.0407L744.283 21.3075L744.032 21.5688L743.776 21.3129L743.52 21.057V18.6017C743.52 17.2026 743.546 15.9994 743.573 15.798C743.632 15.4223 743.952 14.3825 744.005 14.3825C744.026 14.3825 744.101 14.5404 744.181 14.7309ZM744.944 14.8834C744.928 14.9269 744.912 14.9106 744.912 14.8507C744.907 14.7908 744.923 14.7581 744.939 14.7799C744.955 14.7963 744.96 14.8453 744.944 14.8834ZM759.886 15.1828C759.87 15.2372 759.86 15.2046 759.86 15.1175C759.86 15.0249 759.87 14.9868 759.886 15.0195C759.897 15.0576 759.897 15.1338 759.886 15.1828ZM759.886 15.5094C759.87 15.5639 759.86 15.5312 759.86 15.4441C759.86 15.3516 759.87 15.3134 759.886 15.3461C759.897 15.3842 759.897 15.4604 759.886 15.5094ZM759.886 16.0266C759.876 16.0974 759.865 16.0539 759.865 15.9341C759.86 15.8143 759.87 15.7599 759.886 15.8089C759.897 15.8633 759.897 15.9613 759.886 16.0266ZM759.886 16.2988C759.87 16.3424 759.854 16.3261 759.854 16.2662C759.849 16.2063 759.865 16.1736 759.881 16.1954C759.897 16.2117 759.902 16.2607 759.886 16.2988ZM759.886 16.5166C759.87 16.5602 759.854 16.5438 759.854 16.4839C759.849 16.4241 759.865 16.3914 759.881 16.4132C759.897 16.4295 759.902 16.4785 759.886 16.5166ZM759.886 16.8977C759.876 16.9685 759.865 16.9249 759.865 16.8051C759.86 16.6854 759.87 16.6309 759.886 16.6799C759.897 16.7344 759.897 16.8324 759.886 16.8977ZM759.886 17.2243C759.87 17.2625 759.86 17.2352 759.86 17.159C759.86 17.0828 759.87 17.0556 759.886 17.0882C759.897 17.1264 759.897 17.1917 759.886 17.2243ZM759.886 18.6943C759.87 18.7378 759.854 18.7215 759.854 18.6616C759.849 18.6017 759.865 18.5691 759.881 18.5908C759.897 18.6072 759.902 18.6562 759.886 18.6943ZM731.87 18.8032C731.854 18.8467 731.838 18.8304 731.838 18.7705C731.833 18.7106 731.849 18.6779 731.865 18.6997C731.881 18.716 731.886 18.765 731.87 18.8032ZM732.564 19.4565C732.548 19.5 732.532 19.4837 732.532 19.4238C732.527 19.3639 732.543 19.3312 732.559 19.353C732.575 19.3693 732.58 19.4183 732.564 19.4565ZM728.722 19.647C728.706 19.7014 728.695 19.6579 728.695 19.5544C728.695 19.451 728.706 19.4075 728.722 19.4565C728.732 19.5109 728.732 19.598 728.722 19.647ZM731.977 19.5109C731.961 19.5544 731.945 19.5381 731.945 19.4782C731.94 19.4183 731.956 19.3857 731.972 19.4075C731.988 19.4238 731.993 19.4728 731.977 19.5109ZM736.193 21.6069C736.086 21.6178 735.915 21.6178 735.819 21.6069C735.728 21.596 735.819 21.5851 736.022 21.5851C736.23 21.5851 736.305 21.596 736.193 21.6069ZM750.014 21.6015C749.998 21.6178 749.95 21.6232 749.913 21.6069C749.87 21.5906 749.886 21.5742 749.945 21.5742C750.003 21.5688 750.035 21.5851 750.014 21.6015ZM750.9 21.6069C750.862 21.6178 750.788 21.6178 750.74 21.6069C750.686 21.5906 750.718 21.5797 750.804 21.5797C750.894 21.5797 750.932 21.5906 750.9 21.6069ZM751.241 21.6015C751.225 21.6178 751.177 21.6232 751.14 21.6069C751.097 21.5906 751.113 21.5742 751.172 21.5742C751.231 21.5688 751.263 21.5851 751.241 21.6015ZM752.207 21.6069C752.036 21.6178 751.759 21.6178 751.593 21.6069C751.423 21.596 751.561 21.5906 751.898 21.5906C752.234 21.5906 752.373 21.596 752.207 21.6069ZM734.432 22.037C734.416 22.0533 734.368 22.0588 734.33 22.0424C734.288 22.0261 734.304 22.0098 734.362 22.0098C734.421 22.0043 734.453 22.0207 734.432 22.037ZM735.451 22.2058C735.398 22.2166 735.312 22.2166 735.264 22.2058C735.211 22.1894 735.253 22.1785 735.355 22.1785C735.456 22.1785 735.499 22.1894 735.451 22.2058ZM736.625 22.2058C736.572 22.2166 736.486 22.2166 736.438 22.2058C736.385 22.1894 736.427 22.1785 736.529 22.1785C736.63 22.1785 736.673 22.1894 736.625 22.2058ZM751.401 22.2058C751.295 22.2166 751.124 22.2166 751.028 22.2058C750.937 22.1949 751.028 22.184 751.231 22.184C751.439 22.184 751.513 22.1949 751.401 22.2058ZM752.127 22.2058C752.058 22.2166 751.94 22.2166 751.86 22.2058C751.775 22.1949 751.834 22.184 751.978 22.184C752.127 22.184 752.191 22.1949 752.127 22.2058ZM752.415 22.2003C752.399 22.2166 752.351 22.2221 752.314 22.2058C752.271 22.1894 752.287 22.1731 752.346 22.1731C752.405 22.1676 752.437 22.184 752.415 22.2003ZM757.287 23.4198C757.287 23.447 757.261 23.4742 757.229 23.4742C757.202 23.4742 757.191 23.447 757.207 23.4198C757.223 23.3871 757.25 23.3654 757.266 23.3654C757.277 23.3654 757.287 23.3871 757.287 23.4198ZM731.379 23.8553C731.395 23.8826 731.39 23.9098 731.358 23.9098C731.331 23.9098 731.288 23.8826 731.272 23.8553C731.256 23.8227 731.262 23.8009 731.294 23.8009C731.321 23.8009 731.363 23.8227 731.379 23.8553ZM733.621 24.2364C733.476 24.3018 733.391 24.3018 733.487 24.2364C733.53 24.2092 733.604 24.1874 733.647 24.1874C733.701 24.1874 733.69 24.2038 733.621 24.2364ZM755.98 24.2909C755.964 24.3181 755.916 24.3453 755.884 24.3453C755.847 24.3453 755.852 24.3235 755.9 24.2909C756.001 24.2255 756.023 24.2255 755.98 24.2909ZM735.995 24.4542C735.995 24.4869 735.83 24.5032 735.584 24.4977L735.168 24.4869L735.568 24.4542C735.787 24.4324 735.974 24.4161 735.985 24.4106C735.99 24.4052 735.995 24.4215 735.995 24.4542ZM736.369 24.4542C736.369 24.4814 736.326 24.5086 736.278 24.5086C736.198 24.5086 736.193 24.4977 736.262 24.4542C736.363 24.3889 736.369 24.3889 736.369 24.4542ZM736.582 24.4651C736.582 24.4869 736.561 24.5086 736.534 24.5086C736.502 24.5086 736.47 24.4869 736.454 24.4651C736.438 24.4379 736.459 24.4161 736.502 24.4161C736.545 24.4161 736.582 24.4379 736.582 24.4651ZM737.42 24.4705C737.436 24.4869 737.303 24.4977 737.121 24.4977C736.945 24.4923 736.796 24.4705 736.796 24.4488C736.796 24.4052 737.372 24.427 737.42 24.4705ZM737.863 24.4596C737.863 24.5195 737.559 24.525 737.527 24.4651C737.511 24.4433 737.58 24.4215 737.682 24.4161C737.783 24.4106 737.863 24.4324 737.863 24.4596ZM738.076 24.4869C738.076 24.4977 738.039 24.5086 737.996 24.5086C737.954 24.5086 737.916 24.4869 737.916 24.4542C737.916 24.427 737.954 24.4161 737.996 24.4324C738.039 24.4542 738.076 24.476 738.076 24.4869ZM738.925 24.4869C738.936 24.4977 738.786 24.5032 738.589 24.5032C738.397 24.4977 738.22 24.4705 738.204 24.4433C738.172 24.3943 738.872 24.4379 738.925 24.4869ZM739.731 24.4869C739.731 24.4977 739.656 24.5086 739.565 24.5086C739.48 24.5086 739.416 24.4869 739.432 24.4596C739.459 24.4161 739.731 24.4433 739.731 24.4869ZM749.55 24.4869C749.55 24.4977 749.464 24.5086 749.363 24.5086C749.261 24.5086 749.176 24.4869 749.176 24.4651C749.176 24.4433 749.261 24.4324 749.363 24.4433C749.464 24.4542 749.55 24.476 749.55 24.4869ZM750.35 24.4542C750.169 24.5141 750.019 24.5195 750.051 24.4651C750.067 24.4379 750.169 24.4161 750.281 24.4161C750.457 24.4106 750.468 24.4161 750.35 24.4542ZM750.83 24.4542C750.83 24.525 750.67 24.525 750.564 24.4542C750.505 24.4161 750.526 24.3998 750.66 24.3998C750.75 24.3998 750.83 24.4215 750.83 24.4542ZM752.164 24.4869C752.164 24.4977 751.94 24.5032 751.674 24.4977C751.22 24.4923 751.204 24.4869 751.497 24.4596C751.807 24.427 752.164 24.4433 752.164 24.4869ZM751.135 24.4869C751.119 24.5032 751.071 24.5086 751.033 24.4923C750.99 24.476 751.006 24.4596 751.065 24.4596C751.124 24.4542 751.156 24.4705 751.135 24.4869ZM752.789 24.4869C752.773 24.5032 752.725 24.5086 752.687 24.4923C752.645 24.476 752.661 24.4596 752.719 24.4596C752.778 24.4542 752.81 24.4705 752.789 24.4869ZM740.136 24.6828C740.478 24.9496 740.478 24.9605 740.28 25.1728L740.136 25.3253H737.548C736.113 25.3253 734.811 25.3035 734.634 25.2708C734.208 25.2 733.535 24.9932 733.567 24.9442C733.604 24.8788 734.512 24.6665 734.939 24.6175C735.152 24.5957 736.374 24.574 737.655 24.5685L739.981 24.5631L740.136 24.6828ZM752.944 24.6121C753.419 24.6611 754.336 24.868 754.422 24.9442C754.475 24.9932 753.76 25.2109 753.328 25.2763C753.141 25.3035 751.844 25.3253 750.441 25.3253H747.89L747.703 25.1837C747.602 25.102 747.522 25.0204 747.522 24.9932C747.522 24.9659 747.613 24.8625 747.725 24.7536L747.922 24.5685H750.19C751.439 24.5685 752.677 24.5903 752.944 24.6121ZM731.646 25.1619C731.63 25.1892 731.582 25.2164 731.55 25.2164C731.513 25.2164 731.518 25.1946 731.566 25.1619C731.667 25.0966 731.689 25.0966 731.646 25.1619ZM733.098 25.6301C733.338 25.7336 733.775 25.886 734.058 25.9622C734.576 26.1092 734.597 26.1092 737.009 26.1364L739.437 26.1691L738.685 26.915L737.927 27.6663H736.465C735.173 27.6663 734.949 27.6771 734.576 27.7751C733.012 28.178 731.961 29.4084 731.779 31.0416C731.71 31.6786 731.71 36.8723 731.779 37.0629C731.892 37.3623 731.785 37.3514 735.051 37.3569C738.413 37.3569 738.487 37.3514 739.234 37.003C740.152 36.5729 740.755 35.8815 741.102 34.8798C741.246 34.4497 741.252 34.4279 741.278 32.7729L741.305 31.0961L741.999 30.3883L742.692 29.6806L742.724 31.9236C742.746 33.7637 742.767 34.2482 742.842 34.5803C742.975 35.1629 743.135 35.6419 743.338 36.0611C743.439 36.2626 743.52 36.464 743.52 36.5021C743.52 36.6165 742.986 37.3786 742.591 37.8251C741.497 39.0554 740.136 39.8612 738.722 40.1062C738.317 40.1769 737.735 40.1878 734.971 40.1769C731.294 40.1552 731.417 40.166 730.552 39.736C729.976 39.442 729.41 38.8921 729.17 38.3749C728.818 37.6182 728.818 37.6454 728.818 33.7637V30.2522L728.962 29.6969C729.122 29.0654 729.463 28.2869 729.805 27.7697C730.104 27.3233 730.856 26.5284 731.283 26.2127C731.705 25.9023 732.479 25.445 732.58 25.4396C732.623 25.4341 732.852 25.5213 733.098 25.6301ZM736.171 25.4723C736.134 25.4831 736.059 25.4831 736.011 25.4723C735.958 25.4559 735.99 25.445 736.075 25.445C736.166 25.445 736.203 25.4559 736.171 25.4723ZM737.532 25.4723C737.452 25.4831 737.308 25.4831 737.212 25.4723C737.116 25.4614 737.18 25.4505 737.356 25.4505C737.532 25.4505 737.612 25.4614 737.532 25.4723ZM749.427 25.4668C749.411 25.4831 749.363 25.4886 749.326 25.4723C749.283 25.4559 749.299 25.4396 749.358 25.4396C749.416 25.4341 749.448 25.4505 749.427 25.4668ZM749.64 25.4668C749.624 25.4831 749.576 25.4886 749.539 25.4723C749.496 25.4559 749.512 25.4396 749.571 25.4396C749.63 25.4341 749.662 25.4505 749.64 25.4668ZM750.019 25.4723C749.966 25.4831 749.87 25.4831 749.806 25.4723C749.736 25.4614 749.779 25.4505 749.897 25.4505C750.014 25.445 750.067 25.4559 750.019 25.4723ZM750.419 25.4723C750.382 25.4831 750.307 25.4831 750.259 25.4723C750.206 25.4559 750.238 25.445 750.323 25.445C750.414 25.445 750.452 25.4559 750.419 25.4723ZM751.754 25.4723C751.716 25.4831 751.652 25.4831 751.62 25.4723C751.583 25.4559 751.61 25.445 751.684 25.445C751.759 25.445 751.786 25.4559 751.754 25.4723ZM752.074 25.4723C752.036 25.4831 751.972 25.4831 751.94 25.4723C751.903 25.4559 751.93 25.445 752.004 25.445C752.079 25.445 752.106 25.4559 752.074 25.4723ZM755.959 25.7118C757.17 26.4522 758.104 27.4267 758.638 28.5101C758.856 28.9565 759.102 29.8276 759.187 30.4537C759.31 31.3519 759.267 36.9322 759.134 37.5202C758.819 38.9084 757.837 39.8176 756.338 40.1116C755.74 40.2259 749.971 40.2205 749.304 40.1062C748.397 39.9428 747.549 39.589 746.737 39.0337C746.214 38.6798 745.254 37.6944 744.811 37.0738L744.48 36.6001L744.688 36.121C744.928 35.5603 745.083 35.0921 745.211 34.5259C745.281 34.1938 745.307 33.7038 745.329 31.8964L745.361 29.6751L745.846 30.1815C746.113 30.4591 746.412 30.7858 746.513 30.9001L746.695 31.1124L746.727 32.7783C746.753 34.3952 746.759 34.4551 746.897 34.8798C747.287 36.0775 748.205 36.9159 749.491 37.2534C749.859 37.3514 750.115 37.3569 752.97 37.3569H756.055L756.167 37.2099C756.279 37.0629 756.279 37.052 756.263 33.8508L756.247 30.6333L756.103 30.1923C755.724 29.0654 754.913 28.2542 753.712 27.8241C753.387 27.7098 753.269 27.6989 751.716 27.6771L750.067 27.6554L749.31 26.8986L748.546 26.1419H750.734C752.485 26.1419 753.034 26.1256 753.461 26.0548C753.963 25.9731 754.902 25.6791 755.206 25.5104C755.414 25.396 755.478 25.4124 755.959 25.7118ZM757.031 25.5648C757.069 25.543 757.074 25.5539 757.053 25.592C757.005 25.6682 756.861 25.5757 756.861 25.4668C756.861 25.4341 756.887 25.4505 756.919 25.5049C756.951 25.5539 756.999 25.5811 757.031 25.5648ZM738.503 27.2525C738.503 27.2634 738.461 27.3069 738.413 27.345C738.327 27.4158 738.322 27.4104 738.391 27.3233C738.461 27.2362 738.503 27.2089 738.503 27.2525ZM744.533 31.3846C744.533 33.6222 744.523 33.8726 744.427 34.368C744.304 34.9614 744.107 35.5657 744.026 35.5712C743.952 35.5712 743.738 34.9505 743.621 34.3898C743.53 33.9488 743.52 33.6439 743.52 31.4227V28.9511L743.77 28.6898L744.021 28.4284L744.277 28.6843L744.533 28.9402V31.3846ZM742.559 29.6969C742.559 29.7078 742.506 29.7623 742.442 29.8221L742.319 29.9256L742.42 29.8004C742.516 29.686 742.559 29.6534 742.559 29.6969ZM759.353 30.8348C759.337 30.8783 759.321 30.862 759.321 30.8021C759.315 30.7422 759.331 30.7095 759.347 30.7313C759.363 30.7476 759.369 30.7966 759.353 30.8348ZM759.886 31.6786C759.87 31.733 759.86 31.7004 759.86 31.6133C759.86 31.5207 759.87 31.4826 759.886 31.5153C759.897 31.5534 759.897 31.6296 759.886 31.6786ZM759.886 34.1285C759.87 34.1829 759.86 34.1502 759.86 34.0631C759.86 33.9706 759.87 33.9325 759.886 33.9651C759.897 34.0033 759.897 34.0795 759.886 34.1285ZM748.109 35.6202C748.109 35.6528 748.087 35.6583 748.055 35.6419C748.029 35.6256 748.002 35.5821 748.002 35.5548C748.002 35.5222 748.029 35.5167 748.055 35.5331C748.087 35.5494 748.109 35.5929 748.109 35.6202ZM738.541 40.2749C738.525 40.2913 738.477 40.2967 738.439 40.2804C738.397 40.264 738.413 40.2477 738.471 40.2477C738.53 40.2423 738.562 40.2586 738.541 40.2749ZM734.037 40.9337C733.999 40.9446 733.935 40.9446 733.903 40.9337C733.866 40.9173 733.893 40.9064 733.967 40.9064C734.042 40.9064 734.069 40.9173 734.037 40.9337ZM735.051 40.9337C734.981 40.9446 734.864 40.9446 734.784 40.9337C734.698 40.9228 734.757 40.9119 734.901 40.9119C735.051 40.9119 735.115 40.9228 735.051 40.9337ZM736.086 40.9282C736.07 40.9446 736.022 40.95 735.985 40.9337C735.942 40.9173 735.958 40.901 736.017 40.901C736.075 40.8956 736.107 40.9119 736.086 40.9282Z" fill="black"/>
</svg>
