<svg width="350" height="169" viewBox="0 0 350 169" fill="none" xmlns="http://www.w3.org/2000/svg">
<path d="M17.3564 13.2386C13.9509 13.6333 10.6946 14.8668 7.662 16.9143C4.33111 19.1591 1.5968 23.3529 0.552793 27.8919C0.10536 29.7174 0.0805025 31.1482 0.0805025 45.7768C0.0805025 61.2442 0.10536 61.7623 0.627365 64.0565C1.96966 69.9277 4.57969 74.7627 8.63144 78.7838C10.6946 80.8313 14.1995 83.4215 16.3124 84.4576C17.7044 85.1483 17.8784 85.3704 17.1078 85.6171C16.2627 85.8884 12.8075 88.2319 10.8935 89.8354C5.87227 94.0538 2.44195 99.6783 0.751652 106.438L0.10536 109.052L0.0307878 124.002C-0.0437844 136.46 0.0059304 139.346 0.304219 141.467C1.02508 146.253 2.39224 149.09 5.4497 152.124C7.06542 153.703 7.78629 154.221 10.1726 155.381C15.2932 157.897 14.8706 157.847 32.3951 157.971C49.1738 158.069 50.0935 157.995 54.891 156.491C61.6771 154.344 68.3886 149.509 72.9375 143.466C73.7329 142.405 74.4538 141.517 74.5283 141.517C74.6029 141.517 75.2492 142.331 75.9701 143.318C80.3947 149.361 86.9073 154.122 93.7928 156.367C98.4909 157.897 98.5157 157.897 115.916 157.897H131.825L134.285 157.206C140.4 155.553 144.75 152.174 147.112 147.314C149.001 143.367 149.15 141.615 149.026 123.854C148.951 109.595 148.902 108.682 148.429 106.709C146.664 99.6536 143.334 94.1278 138.238 89.9094C136.001 88.0346 133.366 86.2338 132.247 85.7651C131.8 85.5677 131.452 85.3704 131.452 85.2717C131.452 85.173 132.098 84.803 132.893 84.4329C134.758 83.5449 138.337 80.8806 140.4 78.8331C144.601 74.6641 147.261 69.7056 148.554 63.6618C148.926 61.9103 148.976 59.7888 148.976 45.6535C148.976 29.8408 148.976 29.5941 148.429 27.4479C146.64 20.5406 142.538 16.2482 135.727 14.102C132.247 13.0166 130.259 12.9179 114.549 13.0413C98.6649 13.1646 98.466 13.1646 93.768 14.6941C86.7085 16.9636 80.171 21.7247 76.0695 27.5219C75.4481 28.41 74.8763 29.1994 74.7769 29.3227C74.7023 29.4214 73.9318 28.6073 73.0618 27.5466C70.7749 24.6603 66.748 20.9106 63.9142 19.0605C60.0116 16.4702 56.1836 14.8421 51.2867 13.6827C49.149 13.1646 48.4281 13.14 34.1351 13.0659C25.9322 13.0413 18.3755 13.1153 17.3564 13.2386ZM53.6481 14.9408C53.4493 15.0641 53.1759 15.1875 53.0267 15.1875C52.9024 15.1875 52.9521 15.0641 53.151 14.9408C53.3499 14.8174 53.6481 14.6941 53.7724 14.6941C53.9216 14.6941 53.847 14.8174 53.6481 14.9408ZM137.169 15.0888C137.169 15.1381 136.995 15.1875 136.796 15.1875C136.597 15.1875 136.423 15.0888 136.423 14.9408C136.423 14.8174 136.597 14.7681 136.796 14.8421C136.995 14.9408 137.169 15.0395 137.169 15.0888ZM94.4888 15.1135C94.5634 15.2368 94.2651 15.3355 93.8425 15.3602C93.1962 15.3848 93.1465 15.3602 93.5442 15.1875C94.1905 14.9161 94.3645 14.8914 94.4888 15.1135ZM48.9998 17.0376C57.501 18.3204 66.2011 23.9942 71.4212 31.6663L72.4652 33.2204L71.5703 35.0212C70.3523 37.3894 69.6066 39.6836 69.0597 42.6932C68.662 44.7901 68.5874 46.5663 68.5626 54.5096C68.5626 59.6654 68.5129 63.9085 68.4631 63.9578C68.4134 64.0071 66.922 62.675 65.182 60.9729L61.9754 57.8646L61.8262 50.4146C61.7019 43.532 61.6522 42.8166 61.1302 41.2131C59.5891 36.4767 55.935 32.579 51.1873 30.6055C48.0304 29.298 47.4587 29.2487 32.3702 29.2487C18.4998 29.2487 18.4252 29.2487 17.953 29.7668C17.5055 30.2601 17.4807 30.8769 17.4807 44.6421C17.4807 60.7755 17.431 60.3315 19.3947 64.2785C20.7867 67.0907 23.5956 69.9277 26.3299 71.2598C29.8348 72.9619 31.1522 73.1593 39.206 73.1593H46.3152L49.5964 76.4156C51.411 78.2164 52.9024 79.7705 52.9024 79.8692C52.9024 79.9679 47.8315 80.0666 41.6669 80.1159C29.1139 80.2146 29.5862 80.1652 24.1922 82.1634L21.7313 83.0762L19.9913 82.2621C17.2321 80.9546 13.4289 78.3151 11.3409 76.2429C8.10944 73.0359 6.22027 69.9523 4.85312 65.6353C3.75939 62.1323 3.63511 60.1095 3.73454 44.2967C3.80911 31.3209 3.88368 29.4461 4.25654 28.1386C5.9717 22.2674 10.098 18.3944 16.0638 17.161C18.0027 16.7416 19.6433 16.6923 32.3951 16.6923C43.7052 16.6676 47.0609 16.7416 48.9998 17.0376ZM59.8625 17.1856C59.8625 17.457 59.7879 17.457 59.2659 17.2596C58.6942 17.0376 58.7688 16.6923 59.3653 16.8403C59.6388 16.9143 59.8625 17.0623 59.8625 17.1856ZM132.943 17.161C140.127 18.6164 144.502 23.6242 145.347 31.2716C145.496 32.653 145.62 39.0669 145.62 46.2949C145.62 59.9861 145.446 62.3297 144.228 65.956C142.961 69.755 140.798 73.2086 137.89 76.1195C135.628 78.3891 133.515 79.9185 130.159 81.7194L127.624 83.0515L125.287 82.1634C120.216 80.2392 120.191 80.2392 107.464 80.0912L96.03 79.9432L99.5349 76.5389L103.065 73.1593H110.099C117.929 73.1593 119.421 72.9619 121.981 71.7038C126.48 69.5083 129.513 66.104 130.979 61.6883C131.551 59.9861 131.576 59.8628 131.651 45.1601C131.725 30.4328 131.725 30.3588 131.203 29.7914L130.681 29.2487H116.512C104.357 29.2487 102.095 29.298 100.554 29.6434C94.6628 30.9755 90.0393 35.0459 88.0259 40.7197C87.3299 42.6932 87.3299 42.6932 87.2553 50.2419L87.1807 57.7906L83.9493 60.9729L80.7427 64.1551V55.6937C80.7427 51.0313 80.6184 46.1715 80.4693 44.8641C80.0964 41.4351 79.1767 38.1048 77.8841 35.4406L76.7406 33.0971L77.9338 31.3702C80.0715 28.262 83.129 24.9563 85.7142 22.9582C89.8902 19.7512 95.3091 17.4817 100.107 16.9143C101.001 16.8156 108.235 16.7169 116.164 16.6923C129.587 16.6676 130.756 16.7169 132.943 17.161ZM68.3389 23.0075C68.662 23.4022 68.6371 23.4269 68.2643 23.1062C68.0157 22.9335 67.8168 22.7361 67.8168 22.6868C67.8168 22.4894 68.0157 22.6128 68.3389 23.0075ZM49.6213 30.4575C49.8947 30.6055 49.8698 30.7042 49.5218 30.8275C49.2981 30.9015 49.0495 30.9262 48.975 30.8522C48.9004 30.7782 48.9998 30.7288 49.1987 30.7288C49.4721 30.7288 49.4721 30.6795 49.1738 30.4822C48.975 30.3588 48.9252 30.2355 49.0495 30.2355C49.1987 30.2355 49.4473 30.3341 49.6213 30.4575ZM148.529 30.7782C148.454 30.9755 148.38 30.9015 148.38 30.6302C148.355 30.3588 148.429 30.2108 148.504 30.3095C148.578 30.3835 148.603 30.6055 148.529 30.7782ZM118.103 32.3817C117.929 32.431 117.631 32.431 117.482 32.3817C117.308 32.3077 117.432 32.2583 117.78 32.2583C118.128 32.2583 118.252 32.3077 118.103 32.3817ZM47.7569 33.2697C51.9578 34.4785 55.239 37.1427 56.979 40.7444C58.1225 43.1126 58.371 45.1601 58.371 52.1908C58.371 57.1245 58.4456 58.802 58.7191 59.4187C58.9179 59.8628 62.2985 63.3904 66.3503 67.3868C73.4595 74.368 74.4289 75.1575 75.2492 74.6641C75.3984 74.5654 78.7541 71.3338 82.7313 67.4854C87.479 62.8724 90.1139 60.1341 90.4371 59.4681C90.9094 58.5306 90.9342 57.9386 90.9342 51.352C90.9342 45.6782 91.0088 43.9514 91.3319 42.7179C92.3759 38.6475 95.5577 35.2679 99.7089 33.7138C102.07 32.8504 105.227 32.6777 116.91 32.7517L127.847 32.8257L127.922 45.5302C127.947 53.9669 127.897 58.6787 127.698 59.5421C127.027 62.823 124.367 66.326 121.36 67.9048C118.65 69.3356 117.73 69.4589 109.552 69.4589C104.904 69.4589 101.896 69.5576 101.449 69.7303C100.653 70.0263 85.7887 84.6303 85.565 85.321C85.4407 85.7157 86.9073 87.2945 92.6991 93.067C97.2977 97.6308 100.38 100.492 101.026 100.788C101.946 101.232 102.567 101.282 109.105 101.282C116.761 101.282 118.203 101.454 120.614 102.663C123.348 104.02 125.312 106.018 126.654 108.732C127.947 111.371 127.972 111.593 127.972 125.137V137.792H115.096C101.101 137.792 100.852 137.767 97.944 136.361C96.0548 135.473 93.4448 132.981 92.4754 131.18C91.1082 128.615 90.9591 127.579 90.9094 120.055C90.8845 116.305 90.8099 112.802 90.7602 112.259C90.6359 111.347 90.0393 110.705 83.0047 103.675C76.0944 96.8167 75.3238 96.1013 74.5781 96.1013C73.8323 96.1013 73.0618 96.792 66.6734 103.058C62.7708 106.906 59.3156 110.483 58.9925 111.026C58.4208 111.988 58.3959 112.161 58.2965 119.537C58.2219 125.852 58.1473 127.283 57.7745 128.418C56.3327 132.883 52.7533 136.262 48.2541 137.422C47.0858 137.718 44.5503 137.792 33.9362 137.792H21.0601L21.1347 125.013C21.2093 112.383 21.2341 112.235 21.8058 110.656C23.4464 106.043 27.0756 102.713 31.5748 101.652C32.768 101.38 34.856 101.282 40.1754 101.282C45.6441 101.282 47.3841 101.208 48.0055 100.936C48.453 100.739 52.1318 97.2607 56.2333 93.1904C62.6714 86.7765 63.6408 85.7157 63.5165 85.2223C63.3177 84.4823 48.7264 70.051 47.8315 69.7056C47.4089 69.5576 44.1775 69.4589 39.6286 69.4589C33.4391 69.4589 31.8731 69.3849 30.7545 69.0642C26.2305 67.7321 23.0239 64.5498 21.6567 60.0601C21.3087 58.9253 21.2341 56.8532 21.1596 46.0482C21.1098 39.0916 21.1098 33.2204 21.1844 33.023C21.4081 32.4557 45.6938 32.6777 47.7569 33.2697ZM148.529 34.1085C148.454 34.3552 148.404 34.2072 148.404 33.8125C148.404 33.3931 148.454 33.2204 148.529 33.3684C148.578 33.5411 148.578 33.8865 148.529 34.1085ZM95.4085 35.7613C95.4085 35.8106 95.2097 36.008 94.986 36.1807C94.5882 36.5014 94.5634 36.4767 94.8865 36.082C95.2097 35.6873 95.4085 35.5639 95.4085 35.7613ZM148.529 36.2053C148.454 36.4027 148.38 36.3287 148.38 36.0573C148.355 35.786 148.429 35.6379 148.504 35.7366C148.578 35.8106 148.603 36.0326 148.529 36.2053ZM148.529 37.1921C148.454 37.3894 148.38 37.3154 148.38 37.0441C148.355 36.7727 148.429 36.6247 148.504 36.7234C148.578 36.7974 148.603 37.0194 148.529 37.1921ZM75.3735 38.9682C76.8152 42.5946 76.8401 42.6932 76.9395 55.6197L77.0389 67.5594L75.8458 68.7682L74.6775 69.9523L73.4843 68.7929L72.2912 67.6335V56.5078C72.2912 50.1679 72.4155 44.7161 72.5397 43.8033C72.8132 42.1012 74.3046 37.3894 74.5532 37.3894C74.6526 37.3894 75.0006 38.1048 75.3735 38.9682ZM78.9281 39.659C78.8535 39.8563 78.779 39.7823 78.779 39.511C78.7541 39.2396 78.8287 39.0916 78.9032 39.1903C78.9778 39.2643 79.0027 39.4863 78.9281 39.659ZM148.529 41.0158C148.454 41.2624 148.404 41.1144 148.404 40.7197C148.404 40.3004 148.454 40.1277 148.529 40.2757C148.578 40.4484 148.578 40.7937 148.529 41.0158ZM148.529 42.4959C148.454 42.7426 148.404 42.5946 148.404 42.1999C148.404 41.7805 148.454 41.6078 148.529 41.7558C148.578 41.9285 148.578 42.2739 148.529 42.4959ZM148.529 44.8394C148.479 45.1601 148.429 44.9628 148.429 44.4201C148.404 43.8773 148.454 43.6307 148.529 43.8527C148.578 44.0994 148.578 44.5434 148.529 44.8394ZM148.529 46.0729C148.454 46.2702 148.38 46.1962 148.38 45.9249C148.355 45.6535 148.429 45.5055 148.504 45.6042C148.578 45.6782 148.603 45.9002 148.529 46.0729ZM148.529 47.0596C148.454 47.257 148.38 47.183 148.38 46.9116C148.355 46.6403 148.429 46.4922 148.504 46.5909C148.578 46.6649 148.603 46.8869 148.529 47.0596ZM148.529 48.7864C148.479 49.1071 148.429 48.9098 148.429 48.3671C148.404 47.8244 148.454 47.5777 148.529 47.7997C148.578 48.0464 148.578 48.4904 148.529 48.7864ZM148.529 50.2666C148.454 50.4393 148.404 50.3159 148.404 49.9706C148.404 49.6252 148.454 49.5018 148.529 49.6499C148.578 49.8225 148.578 50.1186 148.529 50.2666ZM148.529 56.9272C148.454 57.1245 148.38 57.0505 148.38 56.7792C148.355 56.5078 148.429 56.3598 148.504 56.4585C148.578 56.5325 148.603 56.7545 148.529 56.9272ZM18.0275 57.4205C17.953 57.6179 17.8784 57.5439 17.8784 57.2725C17.8535 57.0012 17.9281 56.8532 18.0027 56.9518C18.0772 57.0258 18.1021 57.2479 18.0275 57.4205ZM21.259 60.3808C21.1844 60.5782 21.1098 60.5042 21.1098 60.2328C21.085 59.9614 21.1596 59.8134 21.2341 59.9121C21.3087 59.9861 21.3336 60.2081 21.259 60.3808ZM3.36168 61.2442C3.2871 61.4909 3.23739 61.2936 3.23739 60.8249C3.23739 60.3561 3.2871 60.1588 3.36168 60.3808C3.41139 60.6275 3.41139 61.0222 3.36168 61.2442ZM18.5247 60.6275C18.4501 60.8249 18.3755 60.7508 18.3755 60.4795C18.3507 60.2081 18.4252 60.0601 18.4998 60.1588C18.5744 60.2328 18.5992 60.4548 18.5247 60.6275ZM38.162 70.125C37.6649 70.1743 36.8694 70.1743 36.422 70.125C35.9994 70.0757 36.422 70.0263 37.3666 70.0263C38.336 70.0263 38.684 70.0757 38.162 70.125ZM102.543 70.1003C102.468 70.1743 102.244 70.199 102.07 70.125C101.871 70.051 101.946 69.977 102.219 69.977C102.493 69.9523 102.642 70.0263 102.543 70.1003ZM106.669 70.125C106.495 70.1743 106.147 70.1743 105.923 70.125C105.675 70.051 105.824 70.0017 106.222 70.0017C106.644 70.0017 106.818 70.051 106.669 70.125ZM108.26 70.1003C108.185 70.1743 107.962 70.199 107.788 70.125C107.589 70.051 107.663 69.977 107.937 69.977C108.21 69.9523 108.359 70.0263 108.26 70.1003ZM112.759 70.125C111.964 70.1743 110.671 70.1743 109.9 70.125C109.105 70.0757 109.751 70.051 111.317 70.051C112.883 70.051 113.53 70.0757 112.759 70.125ZM29.9591 72.0738C29.8845 72.1479 29.6608 72.1725 29.4868 72.0985C29.2879 72.0245 29.3625 71.9505 29.6359 71.9505C29.9094 71.9258 30.0585 71.9998 29.9591 72.0738ZM34.7068 72.8386C34.4583 72.8879 34.0605 72.8879 33.8368 72.8386C33.5882 72.7646 33.7871 72.7152 34.2594 72.7152C34.7317 72.7152 34.9305 72.7646 34.7068 72.8386ZM40.1754 72.8386C39.9269 72.8879 39.5292 72.8879 39.3054 72.8386C39.0569 72.7646 39.2557 72.7152 39.728 72.7152C40.2003 72.7152 40.3992 72.7646 40.1754 72.8386ZM109.006 72.8386C108.508 72.8879 107.713 72.8879 107.266 72.8386C106.843 72.7892 107.266 72.7399 108.21 72.7399C109.18 72.7399 109.528 72.7892 109.006 72.8386ZM112.386 72.8386C112.063 72.8879 111.516 72.8879 111.143 72.8386C110.746 72.7892 111.019 72.7399 111.69 72.7399C112.386 72.7399 112.684 72.7892 112.386 72.8386ZM113.728 72.8139C113.654 72.8879 113.43 72.9126 113.256 72.8386C113.057 72.7646 113.132 72.6906 113.405 72.6906C113.679 72.6659 113.828 72.7399 113.728 72.8139ZM136.423 78.3397C136.423 78.4631 136.299 78.5864 136.15 78.5864C136.025 78.5864 135.976 78.4631 136.05 78.3397C136.125 78.1917 136.249 78.093 136.324 78.093C136.374 78.093 136.423 78.1917 136.423 78.3397ZM15.7406 80.3132C15.8152 80.4366 15.7904 80.5599 15.6412 80.5599C15.5169 80.5599 15.3181 80.4366 15.2435 80.3132C15.1689 80.1652 15.1938 80.0666 15.3429 80.0666C15.4672 80.0666 15.6661 80.1652 15.7406 80.3132ZM26.1807 82.0401C25.5096 82.3361 25.1119 82.3361 25.5593 82.0401C25.7582 81.9167 26.1062 81.818 26.305 81.818C26.5536 81.818 26.5039 81.8921 26.1807 82.0401ZM130.333 82.2868C130.259 82.4101 130.035 82.5334 129.886 82.5334C129.712 82.5334 129.737 82.4348 129.96 82.2868C130.433 81.9907 130.532 81.9907 130.333 82.2868ZM37.2423 83.0268C37.2423 83.1748 36.4717 83.2488 35.3283 83.2242L33.3894 83.1748L35.2537 83.0268C36.2728 82.9281 37.1428 82.8541 37.1926 82.8295C37.2174 82.8048 37.2423 82.8788 37.2423 83.0268ZM38.9823 83.0268C38.9823 83.1502 38.7834 83.2735 38.5597 83.2735C38.1869 83.2735 38.162 83.2242 38.4851 83.0268C38.9574 82.7308 38.9823 82.7308 38.9823 83.0268ZM39.9766 83.0762C39.9766 83.1748 39.8772 83.2735 39.7529 83.2735C39.6037 83.2735 39.4546 83.1748 39.38 83.0762C39.3054 82.9528 39.4049 82.8541 39.6037 82.8541C39.8026 82.8541 39.9766 82.9528 39.9766 83.0762ZM43.8792 83.1008C43.9538 83.1748 43.3323 83.2242 42.4872 83.2242C41.6669 83.1995 40.9709 83.1008 40.9709 83.0022C40.9709 82.8048 43.6555 82.9035 43.8792 83.1008ZM45.9424 83.0515C45.9424 83.3228 44.5255 83.3475 44.3763 83.0762C44.3018 82.9775 44.6249 82.8788 45.0972 82.8541C45.5695 82.8295 45.9424 82.9281 45.9424 83.0515ZM46.9367 83.1748C46.9367 83.2242 46.7627 83.2735 46.5638 83.2735C46.3649 83.2735 46.1909 83.1748 46.1909 83.0268C46.1909 82.9035 46.3649 82.8541 46.5638 82.9281C46.7627 83.0268 46.9367 83.1255 46.9367 83.1748ZM50.889 83.1748C50.9387 83.2242 50.2427 83.2488 49.323 83.2488C48.4281 83.2242 47.6078 83.1008 47.5332 82.9775C47.3841 82.7555 50.6404 82.9528 50.889 83.1748ZM54.6424 83.1748C54.6424 83.2242 54.2944 83.2735 53.8719 83.2735C53.4741 83.2735 53.1759 83.1748 53.2504 83.0515C53.3747 82.8541 54.6424 82.9775 54.6424 83.1748ZM100.38 83.1748C100.38 83.2242 99.9823 83.2735 99.51 83.2735C99.0377 83.2735 98.64 83.1748 98.64 83.0762C98.64 82.9775 99.0377 82.9281 99.51 82.9775C99.9823 83.0268 100.38 83.1255 100.38 83.1748ZM104.109 83.0268C103.263 83.2982 102.567 83.3228 102.717 83.0762C102.791 82.9528 103.263 82.8541 103.785 82.8541C104.606 82.8295 104.655 82.8541 104.109 83.0268ZM106.346 83.0268C106.346 83.3475 105.6 83.3475 105.103 83.0268C104.829 82.8541 104.929 82.7801 105.55 82.7801C105.973 82.7801 106.346 82.8788 106.346 83.0268ZM112.56 83.1748C112.56 83.2242 111.516 83.2488 110.273 83.2242C108.16 83.1995 108.086 83.1748 109.453 83.0515C110.895 82.9035 112.56 82.9775 112.56 83.1748ZM107.763 83.1748C107.688 83.2488 107.464 83.2735 107.29 83.1995C107.092 83.1255 107.166 83.0515 107.44 83.0515C107.713 83.0268 107.862 83.1008 107.763 83.1748ZM115.468 83.1748C115.394 83.2488 115.17 83.2735 114.996 83.1995C114.797 83.1255 114.872 83.0515 115.145 83.0515C115.419 83.0268 115.568 83.1008 115.468 83.1748ZM56.5316 84.0629C58.1225 85.2717 58.1225 85.321 57.2028 86.2831L56.5316 86.9738H44.4758C37.7891 86.9738 31.7239 86.8752 30.9036 86.7271C28.9151 86.4064 25.783 85.469 25.9322 85.247C26.1062 84.951 30.3319 83.9889 32.3205 83.7669C33.3148 83.6682 39.0072 83.5695 44.9729 83.5449L55.8107 83.5202L56.5316 84.0629ZM116.189 83.7422C118.402 83.9642 122.677 84.9016 123.075 85.247C123.323 85.469 119.992 86.4558 117.979 86.7518C117.109 86.8752 111.069 86.9738 104.531 86.9738H92.6494L91.7794 86.3324C91.3071 85.9624 90.9342 85.5924 90.9342 85.469C90.9342 85.3457 91.3568 84.877 91.8788 84.3836L92.7985 83.5449H103.363C109.18 83.5449 114.946 83.6435 116.189 83.7422ZM16.9835 86.2338C16.9089 86.3571 16.6852 86.4805 16.5361 86.4805C16.3621 86.4805 16.3869 86.3818 16.6107 86.2338C17.0829 85.9377 17.1824 85.9377 16.9835 86.2338ZM23.7447 88.3553C24.8633 88.824 26.9016 89.5147 28.2191 89.8601C30.6302 90.5262 30.7296 90.5262 41.9652 90.6495L53.2753 90.7975L49.7704 94.1771L46.2406 97.5814H39.4297C33.4142 97.5814 32.3702 97.6308 30.6302 98.0748C23.347 99.9003 18.4501 105.475 17.605 112.876C17.2818 115.762 17.2818 139.296 17.605 140.16C18.127 141.517 17.6298 141.467 32.8425 141.492C48.5027 141.492 48.8507 141.467 52.3307 139.889C56.6062 137.94 59.4151 134.807 61.0308 130.268C61.7019 128.319 61.7268 128.22 61.8511 120.721L61.9754 113.123L65.2068 109.916L68.4383 106.709L68.5874 116.872C68.6869 125.211 68.7863 127.406 69.1343 128.911C69.7557 131.55 70.5014 133.721 71.446 135.621C71.9183 136.534 72.2912 137.446 72.2912 137.619C72.2912 138.137 69.8054 141.591 67.966 143.614C62.8702 149.189 56.5316 152.84 49.9444 153.95C48.0552 154.27 45.3458 154.32 32.4697 154.27C15.3429 154.172 15.9147 154.221 11.8878 152.272C9.20316 150.94 6.56828 148.449 5.4497 146.105C3.80911 142.676 3.80911 142.799 3.80911 125.211V109.299L4.48026 106.783C5.22598 103.921 6.81685 100.394 8.40772 98.0502C9.79974 96.0273 13.3046 92.4257 15.2932 90.9949C17.2569 89.5887 20.8613 87.5165 21.3336 87.4919C21.5324 87.4672 22.6013 87.8619 23.7447 88.3553ZM38.0626 87.6399C37.8886 87.6892 37.5406 87.6892 37.3168 87.6399C37.0683 87.5659 37.2174 87.5165 37.6151 87.5165C38.0377 87.5165 38.2117 87.5659 38.0626 87.6399ZM44.4012 87.6399C44.0283 87.6892 43.3572 87.6892 42.9098 87.6399C42.4623 87.5906 42.7606 87.5412 43.5809 87.5412C44.4012 87.5412 44.7741 87.5906 44.4012 87.6399ZM99.8083 87.6152C99.7337 87.6892 99.51 87.7139 99.336 87.6399C99.1371 87.5659 99.2117 87.4919 99.4851 87.4919C99.7586 87.4672 99.9077 87.5412 99.8083 87.6152ZM100.803 87.6152C100.728 87.6892 100.504 87.7139 100.33 87.6399C100.131 87.5659 100.206 87.4919 100.479 87.4919C100.753 87.4672 100.902 87.5412 100.803 87.6152ZM102.567 87.6399C102.319 87.6892 101.871 87.6892 101.573 87.6399C101.25 87.5906 101.449 87.5412 101.996 87.5412C102.543 87.5165 102.791 87.5659 102.567 87.6399ZM104.432 87.6399C104.258 87.6892 103.91 87.6892 103.686 87.6399C103.437 87.5659 103.587 87.5165 103.984 87.5165C104.407 87.5165 104.581 87.5659 104.432 87.6399ZM110.646 87.6399C110.472 87.6892 110.174 87.6892 110.025 87.6399C109.851 87.5659 109.975 87.5165 110.323 87.5165C110.671 87.5165 110.795 87.5659 110.646 87.6399ZM112.138 87.6399C111.964 87.6892 111.665 87.6892 111.516 87.6399C111.342 87.5659 111.466 87.5165 111.814 87.5165C112.162 87.5165 112.287 87.5659 112.138 87.6399ZM130.234 88.7253C135.876 92.0803 140.226 96.496 142.712 101.405C143.731 103.428 144.875 107.375 145.272 110.212C145.844 114.282 145.645 139.568 145.024 142.232C143.557 148.523 138.984 152.642 131.999 153.974C129.215 154.492 102.344 154.468 99.2366 153.95C95.0108 153.21 91.0585 151.606 87.2802 149.09C84.8442 147.487 80.3698 143.021 78.3067 140.209L76.7655 138.063L77.7349 135.892C78.8535 133.351 79.5744 131.23 80.171 128.664C80.4941 127.159 80.6184 124.939 80.7178 116.749L80.867 106.684L83.129 108.978C84.3719 110.237 85.7639 111.717 86.2362 112.235L87.0813 113.197L87.2305 120.745C87.3547 128.072 87.3796 128.344 88.0259 130.268C89.8405 135.695 94.116 139.494 100.107 141.023C101.822 141.467 103.015 141.492 116.314 141.492H130.681L131.203 140.826C131.725 140.16 131.725 140.111 131.651 125.605L131.576 111.026L130.905 109.028C129.14 103.921 125.362 100.246 119.769 98.2968C118.252 97.7788 117.706 97.7295 110.472 97.6308L102.791 97.5321L99.2614 94.1031L95.7068 90.6742H105.898C114.052 90.6742 116.612 90.6002 118.6 90.2795C120.937 89.9094 125.312 88.5773 126.729 87.8126C127.698 87.2945 127.997 87.3685 130.234 88.7253ZM135.23 88.0593C135.404 87.9606 135.429 88.0099 135.329 88.1826C135.106 88.528 134.435 88.1086 134.435 87.6152C134.435 87.4672 134.559 87.5412 134.708 87.7879C134.857 88.0099 135.081 88.1333 135.23 88.0593ZM48.9252 95.7066C48.9252 95.7559 48.7264 95.9533 48.5027 96.126C48.1049 96.4467 48.0801 96.422 48.4032 96.0273C48.7264 95.6326 48.9252 95.5093 48.9252 95.7066ZM77.0141 114.43C77.0141 124.569 76.9644 125.704 76.5169 127.949C75.9452 130.638 75.0255 133.376 74.6526 133.401C74.3046 133.401 73.3103 130.588 72.7635 128.047C72.3409 126.049 72.2912 124.668 72.2912 114.603V103.403L73.4595 102.219L74.6278 101.035L75.8209 102.195L77.0141 103.354V114.43ZM67.8168 106.783C67.8168 106.832 67.5683 107.079 67.27 107.35L66.6983 107.819L67.1706 107.252C67.618 106.734 67.8168 106.586 67.8168 106.783ZM146.043 111.939C145.968 112.136 145.894 112.062 145.894 111.791C145.869 111.519 145.944 111.371 146.018 111.47C146.093 111.544 146.118 111.766 146.043 111.939ZM148.529 115.762C148.454 116.009 148.404 115.861 148.404 115.466C148.404 115.047 148.454 114.874 148.529 115.022C148.578 115.195 148.578 115.54 148.529 115.762ZM148.529 126.863C148.454 127.11 148.404 126.962 148.404 126.567C148.404 126.148 148.454 125.975 148.529 126.123C148.578 126.296 148.578 126.641 148.529 126.863ZM93.6685 133.623C93.6685 133.771 93.5691 133.795 93.4199 133.721C93.2957 133.647 93.1714 133.45 93.1714 133.327C93.1714 133.179 93.2957 133.154 93.4199 133.228C93.5691 133.302 93.6685 133.499 93.6685 133.623ZM49.0992 154.715C49.0247 154.789 48.801 154.813 48.627 154.739C48.4281 154.665 48.5027 154.591 48.7761 154.591C49.0495 154.567 49.1987 154.641 49.0992 154.715ZM28.1196 157.699C27.9456 157.749 27.6473 157.749 27.4982 157.699C27.3242 157.625 27.4485 157.576 27.7965 157.576C28.1445 157.576 28.2688 157.625 28.1196 157.699ZM32.8425 157.699C32.5194 157.749 31.9725 157.749 31.5997 157.699C31.2019 157.65 31.4754 157.601 32.1465 157.601C32.8425 157.601 33.1408 157.65 32.8425 157.699ZM37.6649 157.675C37.5903 157.749 37.3666 157.773 37.1926 157.699C36.9937 157.625 37.0683 157.551 37.3417 157.551C37.6151 157.527 37.7643 157.601 37.6649 157.675Z" fill="black"/>
<path d="M190.263 45.9091V75H186.854L171.002 52.1591H170.718V75H167.195V45.9091H170.604L186.513 68.8068H186.797V45.9091H190.263ZM203.278 75.5114C201.895 75.5114 200.641 75.2509 199.514 74.7301C198.387 74.1998 197.492 73.4375 196.829 72.4432C196.166 71.4394 195.835 70.2273 195.835 68.8068C195.835 67.5568 196.081 66.5436 196.573 65.767C197.066 64.9811 197.724 64.3655 198.548 63.9205C199.372 63.4754 200.281 63.1439 201.275 62.9261C202.279 62.6989 203.287 62.5189 204.301 62.3864C205.626 62.2159 206.701 62.0881 207.525 62.0028C208.358 61.9081 208.964 61.7519 209.343 61.5341C209.732 61.3163 209.926 60.9375 209.926 60.3977V60.2841C209.926 58.8826 209.542 57.7936 208.775 57.017C208.018 56.2405 206.867 55.8523 205.323 55.8523C203.723 55.8523 202.468 56.2027 201.559 56.9034C200.65 57.6042 200.011 58.3523 199.642 59.1477L196.46 58.0114C197.028 56.6856 197.786 55.6534 198.732 54.9148C199.689 54.1667 200.731 53.6458 201.857 53.3523C202.994 53.0492 204.111 52.8977 205.21 52.8977C205.911 52.8977 206.715 52.983 207.625 53.1534C208.543 53.3144 209.429 53.6506 210.281 54.1619C211.143 54.6733 211.857 55.4451 212.426 56.4773C212.994 57.5095 213.278 58.892 213.278 60.625V75H209.926V72.0455H209.755C209.528 72.5189 209.149 73.0256 208.619 73.5653C208.089 74.1051 207.383 74.5644 206.502 74.9432C205.622 75.322 204.547 75.5114 203.278 75.5114ZM203.789 72.5C205.115 72.5 206.232 72.2396 207.142 71.7188C208.06 71.1979 208.751 70.5256 209.215 69.7017C209.689 68.8778 209.926 68.0114 209.926 67.1023V64.0341C209.784 64.2045 209.471 64.3608 208.988 64.5028C208.515 64.6354 207.965 64.7538 207.34 64.858C206.725 64.9527 206.124 65.0379 205.536 65.1136C204.959 65.1799 204.49 65.2367 204.13 65.2841C203.259 65.3977 202.445 65.5824 201.687 65.8381C200.939 66.0843 200.333 66.4583 199.869 66.9602C199.414 67.4527 199.187 68.125 199.187 68.9773C199.187 70.142 199.618 71.0227 200.48 71.6193C201.351 72.2064 202.454 72.5 203.789 72.5ZM228.885 53.1818V56.0227H217.578V53.1818H228.885ZM220.874 47.9545H224.226V68.75C224.226 69.697 224.363 70.4072 224.638 70.8807C224.922 71.3447 225.282 71.6572 225.718 71.8182C226.163 71.9697 226.631 72.0455 227.124 72.0455C227.493 72.0455 227.796 72.0265 228.033 71.9886C228.27 71.9413 228.459 71.9034 228.601 71.875L229.283 74.8864C229.056 74.9716 228.738 75.0568 228.331 75.142C227.924 75.2367 227.408 75.2841 226.783 75.2841C225.836 75.2841 224.908 75.0805 223.999 74.6733C223.099 74.2661 222.351 73.6458 221.755 72.8125C221.167 71.9792 220.874 70.928 220.874 69.6591V47.9545ZM247.678 66.0795V53.1818H251.03V75H247.678V71.3068H247.451C246.939 72.4148 246.144 73.357 245.064 74.1335C243.985 74.9006 242.621 75.2841 240.973 75.2841C239.61 75.2841 238.397 74.9858 237.337 74.3892C236.276 73.7831 235.443 72.8741 234.837 71.6619C234.231 70.4403 233.928 68.9015 233.928 67.0455V53.1818H237.28V66.8182C237.28 68.4091 237.725 69.678 238.615 70.625C239.515 71.572 240.661 72.0455 242.053 72.0455C242.886 72.0455 243.734 71.8324 244.595 71.4062C245.467 70.9801 246.196 70.3267 246.783 69.446C247.38 68.5653 247.678 67.4432 247.678 66.0795ZM257.17 75V53.1818H260.409V56.4773H260.636C261.034 55.3977 261.753 54.5218 262.795 53.8494C263.837 53.1771 265.011 52.8409 266.318 52.8409C266.564 52.8409 266.872 52.8456 267.241 52.8551C267.61 52.8646 267.89 52.8788 268.079 52.8977V56.3068C267.965 56.2784 267.705 56.2358 267.298 56.179C266.9 56.1127 266.479 56.0795 266.034 56.0795C264.973 56.0795 264.026 56.3021 263.193 56.7472C262.369 57.1828 261.715 57.7888 261.232 58.5653C260.759 59.3324 260.522 60.2083 260.522 61.1932V75H257.17ZM278.473 75.5114C277.091 75.5114 275.836 75.2509 274.709 74.7301C273.582 74.1998 272.687 73.4375 272.024 72.4432C271.362 71.4394 271.03 70.2273 271.03 68.8068C271.03 67.5568 271.276 66.5436 271.769 65.767C272.261 64.9811 272.919 64.3655 273.743 63.9205C274.567 63.4754 275.476 63.1439 276.47 62.9261C277.474 62.6989 278.483 62.5189 279.496 62.3864C280.822 62.2159 281.897 62.0881 282.72 62.0028C283.554 61.9081 284.16 61.7519 284.539 61.5341C284.927 61.3163 285.121 60.9375 285.121 60.3977V60.2841C285.121 58.8826 284.737 57.7936 283.97 57.017C283.213 56.2405 282.062 55.8523 280.519 55.8523C278.918 55.8523 277.664 56.2027 276.755 56.9034C275.845 57.6042 275.206 58.3523 274.837 59.1477L271.655 58.0114C272.223 56.6856 272.981 55.6534 273.928 54.9148C274.884 54.1667 275.926 53.6458 277.053 53.3523C278.189 53.0492 279.307 52.8977 280.405 52.8977C281.106 52.8977 281.911 52.983 282.82 53.1534C283.738 53.3144 284.624 53.6506 285.476 54.1619C286.338 54.6733 287.053 55.4451 287.621 56.4773C288.189 57.5095 288.473 58.892 288.473 60.625V75H285.121V72.0455H284.951C284.723 72.5189 284.344 73.0256 283.814 73.5653C283.284 74.1051 282.578 74.5644 281.698 74.9432C280.817 75.322 279.742 75.5114 278.473 75.5114ZM278.985 72.5C280.31 72.5 281.428 72.2396 282.337 71.7188C283.255 71.1979 283.947 70.5256 284.411 69.7017C284.884 68.8778 285.121 68.0114 285.121 67.1023V64.0341C284.979 64.2045 284.666 64.3608 284.183 64.5028C283.71 64.6354 283.161 64.7538 282.536 64.858C281.92 64.9527 281.319 65.0379 280.732 65.1136C280.154 65.1799 279.685 65.2367 279.326 65.2841C278.454 65.3977 277.64 65.5824 276.882 65.8381C276.134 66.0843 275.528 66.4583 275.064 66.9602C274.61 67.4527 274.382 68.125 274.382 68.9773C274.382 70.142 274.813 71.0227 275.675 71.6193C276.546 72.2064 277.649 72.5 278.985 72.5ZM186.286 93.9091H189.808V113.17C189.808 115.159 189.34 116.935 188.402 118.497C187.474 120.05 186.163 121.277 184.468 122.176C182.772 123.066 180.784 123.511 178.502 123.511C176.219 123.511 174.231 123.066 172.536 122.176C170.841 121.277 169.524 120.05 168.587 118.497C167.659 116.935 167.195 115.159 167.195 113.17V93.9091H170.718V112.886C170.718 114.307 171.03 115.571 171.655 116.679C172.28 117.777 173.17 118.644 174.326 119.278C175.49 119.903 176.882 120.216 178.502 120.216C180.121 120.216 181.513 119.903 182.678 119.278C183.843 118.644 184.733 117.777 185.348 116.679C185.973 115.571 186.286 114.307 186.286 112.886V93.9091ZM211.843 106.068L208.832 106.92C208.643 106.419 208.363 105.931 207.994 105.457C207.634 104.974 207.142 104.577 206.517 104.264C205.892 103.952 205.091 103.795 204.116 103.795C202.781 103.795 201.668 104.103 200.778 104.719C199.897 105.325 199.457 106.097 199.457 107.034C199.457 107.867 199.76 108.526 200.366 109.009C200.972 109.491 201.919 109.894 203.207 110.216L206.446 111.011C208.396 111.485 209.85 112.209 210.806 113.185C211.763 114.151 212.241 115.396 212.241 116.92C212.241 118.17 211.881 119.288 211.161 120.273C210.451 121.258 209.457 122.034 208.179 122.602C206.9 123.17 205.413 123.455 203.718 123.455C201.493 123.455 199.651 122.972 198.193 122.006C196.734 121.04 195.811 119.629 195.423 117.773L198.605 116.977C198.908 118.152 199.481 119.032 200.323 119.619C201.176 120.206 202.288 120.5 203.661 120.5C205.224 120.5 206.464 120.169 207.383 119.506C208.311 118.833 208.775 118.028 208.775 117.091C208.775 116.333 208.51 115.699 207.98 115.188C207.449 114.667 206.635 114.278 205.536 114.023L201.9 113.17C199.902 112.697 198.434 111.963 197.497 110.969C196.569 109.965 196.105 108.71 196.105 107.205C196.105 105.973 196.45 104.884 197.142 103.938C197.842 102.991 198.794 102.247 199.997 101.707C201.209 101.168 202.582 100.898 204.116 100.898C206.275 100.898 207.97 101.371 209.201 102.318C210.442 103.265 211.322 104.515 211.843 106.068ZM202.582 98.2273L206.048 91.6364H209.968L205.536 98.2273H202.582ZM217.287 123V101.182H220.526V104.591H220.81C221.264 103.426 221.998 102.522 223.012 101.878C224.025 101.224 225.242 100.898 226.662 100.898C228.102 100.898 229.299 101.224 230.256 101.878C231.222 102.522 231.975 103.426 232.514 104.591H232.742C233.3 103.464 234.139 102.569 235.256 101.906C236.373 101.234 237.713 100.898 239.276 100.898C241.227 100.898 242.822 101.509 244.063 102.73C245.303 103.942 245.924 105.831 245.924 108.398V123H242.571V108.398C242.571 106.788 242.131 105.637 241.25 104.946C240.37 104.255 239.333 103.909 238.139 103.909C236.605 103.909 235.417 104.373 234.574 105.301C233.731 106.22 233.31 107.384 233.31 108.795V123H229.901V108.057C229.901 106.816 229.498 105.817 228.693 105.06C227.889 104.293 226.852 103.909 225.583 103.909C224.711 103.909 223.897 104.141 223.139 104.605C222.391 105.069 221.785 105.713 221.321 106.537C220.867 107.351 220.639 108.294 220.639 109.364V123H217.287ZM252.053 123V101.182H255.405V123H252.053ZM253.757 97.5455C253.104 97.5455 252.54 97.3229 252.067 96.8778C251.603 96.4328 251.371 95.8977 251.371 95.2727C251.371 94.6477 251.603 94.1127 252.067 93.6676C252.54 93.2225 253.104 93 253.757 93C254.411 93 254.969 93.2225 255.433 93.6676C255.907 94.1127 256.144 94.6477 256.144 95.2727C256.144 95.8977 255.907 96.4328 255.433 96.8778C254.969 97.3229 254.411 97.5455 253.757 97.5455ZM270.693 123.455C268.59 123.455 266.777 122.991 265.252 122.062C263.737 121.125 262.568 119.818 261.744 118.142C260.929 116.456 260.522 114.496 260.522 112.261C260.522 110.027 260.929 108.057 261.744 106.352C262.568 104.638 263.714 103.303 265.181 102.347C266.659 101.381 268.382 100.898 270.352 100.898C271.488 100.898 272.61 101.087 273.718 101.466C274.826 101.845 275.835 102.46 276.744 103.312C277.653 104.155 278.377 105.273 278.917 106.665C279.457 108.057 279.727 109.771 279.727 111.807V113.227H262.909V110.33H276.318C276.318 109.098 276.072 108 275.579 107.034C275.096 106.068 274.405 105.306 273.505 104.747C272.615 104.188 271.564 103.909 270.352 103.909C269.017 103.909 267.861 104.241 266.886 104.903C265.92 105.557 265.177 106.409 264.656 107.46C264.135 108.511 263.875 109.638 263.875 110.841V112.773C263.875 114.42 264.159 115.817 264.727 116.963C265.304 118.099 266.105 118.966 267.127 119.562C268.15 120.15 269.339 120.443 270.693 120.443C271.573 120.443 272.369 120.32 273.079 120.074C273.799 119.818 274.419 119.439 274.94 118.938C275.461 118.426 275.863 117.792 276.147 117.034L279.386 117.943C279.045 119.042 278.472 120.008 277.667 120.841C276.862 121.665 275.868 122.309 274.684 122.773C273.5 123.227 272.17 123.455 270.693 123.455ZM293.69 123.455C291.644 123.455 289.883 122.972 288.406 122.006C286.929 121.04 285.792 119.709 284.997 118.014C284.201 116.319 283.804 114.383 283.804 112.205C283.804 109.989 284.211 108.033 285.025 106.338C285.849 104.634 286.995 103.303 288.463 102.347C289.94 101.381 291.663 100.898 293.633 100.898C295.167 100.898 296.55 101.182 297.781 101.75C299.012 102.318 300.02 103.114 300.806 104.136C301.592 105.159 302.08 106.352 302.269 107.716H298.917C298.661 106.722 298.093 105.841 297.213 105.074C296.341 104.297 295.167 103.909 293.69 103.909C292.383 103.909 291.237 104.25 290.252 104.932C289.277 105.604 288.515 106.556 287.965 107.787C287.426 109.009 287.156 110.443 287.156 112.091C287.156 113.777 287.421 115.244 287.951 116.494C288.491 117.744 289.249 118.715 290.224 119.406C291.209 120.098 292.364 120.443 293.69 120.443C294.561 120.443 295.352 120.292 296.062 119.989C296.772 119.686 297.374 119.25 297.866 118.682C298.358 118.114 298.709 117.432 298.917 116.636H302.269C302.08 117.924 301.611 119.084 300.863 120.116C300.125 121.139 299.144 121.954 297.923 122.56C296.711 123.156 295.3 123.455 293.69 123.455ZM310.522 109.875V123H307.17V93.9091H310.522V104.591H310.806C311.318 103.464 312.085 102.569 313.107 101.906C314.14 101.234 315.513 100.898 317.227 100.898C318.714 100.898 320.016 101.196 321.133 101.793C322.25 102.38 323.117 103.284 323.732 104.506C324.357 105.718 324.67 107.261 324.67 109.136V123H321.318V109.364C321.318 107.631 320.868 106.291 319.968 105.344C319.078 104.387 317.842 103.909 316.261 103.909C315.162 103.909 314.178 104.141 313.306 104.605C312.445 105.069 311.763 105.746 311.261 106.636C310.768 107.527 310.522 108.606 310.522 109.875ZM344.553 114.08V101.182H347.905V123H344.553V119.307H344.326C343.814 120.415 343.019 121.357 341.939 122.134C340.86 122.901 339.496 123.284 337.848 123.284C336.485 123.284 335.272 122.986 334.212 122.389C333.151 121.783 332.318 120.874 331.712 119.662C331.106 118.44 330.803 116.902 330.803 115.045V101.182H334.155V114.818C334.155 116.409 334.6 117.678 335.49 118.625C336.39 119.572 337.536 120.045 338.928 120.045C339.761 120.045 340.609 119.832 341.47 119.406C342.342 118.98 343.071 118.327 343.658 117.446C344.255 116.565 344.553 115.443 344.553 114.08Z" fill="black"/>
</svg>
