<svg width="250" height="80" viewBox="0 0 250 80" fill="none" xmlns="http://www.w3.org/2000/svg">
<path d="M8.04612 6.11336C6.46741 6.30086 4.95784 6.8868 3.55198 7.85945C2.00784 8.92586 0.740257 10.918 0.256272 13.0743C0.0488506 13.9415 0.0373272 14.6212 0.0373272 21.5704C0.0373272 28.918 0.0488506 29.1641 0.290843 30.254C0.913108 33.043 2.12307 35.3399 4.00139 37.2501C4.95784 38.2227 6.58264 39.4532 7.56213 39.9454C8.20744 40.2735 8.28811 40.379 7.93088 40.4962C7.53909 40.6251 5.93733 41.7384 5.05002 42.5001C2.72229 44.504 1.13205 47.1759 0.34846 50.3868L0.0488506 51.629L0.0142803 58.7306C-0.02029 64.6485 0.00275686 66.0196 0.141038 67.0274C0.475218 69.3009 1.10901 70.6485 2.52639 72.0899C3.27541 72.8399 3.60959 73.086 4.71584 73.6368C7.08967 74.8321 6.89377 74.8087 15.0178 74.8673C22.7961 74.9141 23.2225 74.879 25.4465 74.1641C28.5924 73.1446 31.7037 70.8477 33.8125 67.9766C34.1813 67.4727 34.5155 67.0509 34.55 67.0509C34.5846 67.0509 34.8842 67.4376 35.2184 67.9063C37.2696 70.7774 40.2887 73.0391 43.4807 74.1056C45.6586 74.8321 45.6701 74.8321 53.7365 74.8321H61.1115L62.2524 74.504C65.0871 73.7188 67.1037 72.1134 68.1985 69.8048C69.0742 67.9298 69.1434 67.0977 69.0858 58.6602C69.0512 51.8868 69.0282 51.4532 68.8092 50.5157C67.991 47.1641 66.4469 44.5391 64.0846 42.5352C63.0475 41.6446 61.826 40.7891 61.3074 40.5665C61.1 40.4727 60.9387 40.379 60.9387 40.3321C60.9387 40.2852 61.2383 40.1095 61.6071 39.9337C62.4713 39.5118 64.1307 38.2462 65.0871 37.2735C67.0346 35.293 68.2676 32.9376 68.8668 30.0665C69.0397 29.2345 69.0627 28.2266 69.0627 21.5118C69.0627 14.0001 69.0627 13.8829 68.8092 12.8634C67.9795 9.58211 66.0781 7.54305 62.9207 6.52351C61.3074 6.00789 60.3856 5.96101 53.1028 6.01961C45.7393 6.0782 45.6471 6.0782 43.4692 6.80476C40.1965 7.88289 37.1658 10.1446 35.2645 12.8985C34.9764 13.3204 34.7113 13.6954 34.6653 13.754C34.6307 13.8009 34.2735 13.4141 33.8701 12.9102C32.81 11.5391 30.9432 9.75789 29.6295 8.87898C27.8203 7.64851 26.0457 6.87508 23.7756 6.3243C22.7846 6.0782 22.4504 6.06648 15.8244 6.03133C12.0217 6.01961 8.51858 6.05476 8.04612 6.11336ZM24.8703 6.92195C24.7781 6.98055 24.6514 7.03914 24.5822 7.03914C24.5246 7.03914 24.5477 6.98055 24.6399 6.92195C24.7321 6.86336 24.8703 6.80476 24.928 6.80476C24.9971 6.80476 24.9625 6.86336 24.8703 6.92195ZM63.5891 6.99226C63.5891 7.0157 63.5084 7.03914 63.4162 7.03914C63.3241 7.03914 63.2434 6.99226 63.2434 6.92195C63.2434 6.86336 63.3241 6.83992 63.4162 6.87508C63.5084 6.92195 63.5891 6.96883 63.5891 6.99226ZM43.8033 7.00398C43.8379 7.06258 43.6996 7.10945 43.5037 7.12117C43.2041 7.13289 43.1811 7.12117 43.3655 7.03914C43.6651 6.91023 43.7457 6.89851 43.8033 7.00398ZM22.7155 7.91805C26.6565 8.52742 30.6897 11.2227 33.1096 14.8673L33.5936 15.6055L33.1787 16.461C32.6141 17.586 32.2684 18.6759 32.0149 20.1055C31.8305 21.1016 31.7959 21.9454 31.7844 25.7188C31.7844 28.168 31.7614 30.1837 31.7383 30.2071C31.7153 30.2305 31.0239 29.5977 30.2172 28.7891L28.7307 27.3126L28.6615 23.7735C28.6039 20.504 28.5809 20.1641 28.3389 19.4024C27.6244 17.1524 25.9305 15.3009 23.7295 14.3634C22.266 13.7423 22.001 13.7188 15.0063 13.7188C8.57619 13.7188 8.54162 13.7188 8.32268 13.9649C8.11526 14.1993 8.10373 14.4923 8.10373 21.0313C8.10373 28.6954 8.08069 28.4845 8.99104 30.3595C9.63635 31.6954 10.9385 33.043 12.2061 33.6759C13.8309 34.4845 14.4416 34.5782 18.1752 34.5782H21.4709L22.992 36.1251C23.8332 36.9805 24.5246 37.7188 24.5246 37.7657C24.5246 37.8126 22.1739 37.8595 19.316 37.8829C13.4967 37.9298 13.7156 37.9063 11.2151 38.8555L10.0742 39.2891L9.2676 38.9024C7.9885 38.2813 6.22541 37.0274 5.25744 36.043C3.7594 34.5196 2.88362 33.0548 2.24983 31.004C1.7428 29.3399 1.68518 28.379 1.73127 20.8673C1.76584 14.7032 1.80041 13.8126 1.97326 13.1915C2.76838 10.4024 4.68127 8.56258 7.4469 7.97664C8.34573 7.77742 9.10627 7.75398 15.0178 7.75398C20.261 7.74226 21.8166 7.77742 22.7155 7.91805ZM27.7512 7.98836C27.7512 8.11726 27.7166 8.11726 27.4746 8.02351C27.2096 7.91805 27.2442 7.75398 27.5207 7.8243C27.6475 7.85945 27.7512 7.92976 27.7512 7.98836ZM61.6301 7.97664C64.9604 8.66805 66.9885 11.047 67.3803 14.6798C67.4494 15.336 67.5071 18.3829 67.5071 21.8165C67.5071 28.3204 67.4264 29.4337 66.8617 31.1563C66.274 32.961 65.2715 34.6016 63.9233 35.9845C62.8746 37.0626 61.8951 37.7891 60.3395 38.6446L59.1641 39.2774L58.0809 38.8555C55.7301 37.9415 55.7186 37.9415 49.8186 37.8712L44.5178 37.8009L46.1426 36.1837L47.7789 34.5782H51.0401C54.6699 34.5782 55.3614 34.4845 56.5483 33.8868C58.634 32.8438 60.0399 31.2266 60.7198 29.129C60.9848 28.3204 60.9963 28.2618 61.0309 21.2774C61.0655 14.2813 61.0655 14.2462 60.8235 13.9766L60.5815 13.7188H54.0131C48.3782 13.7188 47.3295 13.7423 46.6151 13.9063C43.884 14.5391 41.7406 16.4727 40.8073 19.168C40.4846 20.1055 40.4846 20.1055 40.45 23.6915L40.4155 27.2774L38.9174 28.7891L37.4309 30.3009V26.2813C37.4309 24.0665 37.3733 21.7579 37.3041 21.1368C37.1313 19.5079 36.7049 17.9259 36.1057 16.6602L35.5756 15.547L36.1287 14.7266C37.1197 13.2501 38.5371 11.6798 39.7356 10.7305C41.6715 9.20711 44.1836 8.12898 46.4076 7.85945C46.8225 7.81258 50.1758 7.7657 53.8518 7.75398C60.0744 7.74226 60.616 7.7657 61.6301 7.97664ZM31.6807 10.754C31.8305 10.9415 31.819 10.9532 31.6461 10.8009C31.5309 10.7188 31.4387 10.6251 31.4387 10.6016C31.4387 10.5079 31.5309 10.5665 31.6807 10.754ZM23.0035 14.293C23.1303 14.3634 23.1188 14.4102 22.9574 14.4688C22.8537 14.504 22.7385 14.5157 22.7039 14.4805C22.6694 14.4454 22.7155 14.422 22.8076 14.422C22.9344 14.422 22.9344 14.3985 22.7961 14.3048C22.7039 14.2462 22.6809 14.1876 22.7385 14.1876C22.8076 14.1876 22.9229 14.2345 23.0035 14.293ZM68.8553 14.4454C68.8207 14.5391 68.7862 14.504 68.7862 14.3751C68.7746 14.2462 68.8092 14.1759 68.8438 14.2227C68.8783 14.2579 68.8899 14.3634 68.8553 14.4454ZM54.7506 15.2071C54.6699 15.2305 54.5317 15.2305 54.4625 15.2071C54.3819 15.172 54.4395 15.1485 54.6008 15.1485C54.7621 15.1485 54.8198 15.172 54.7506 15.2071ZM22.1393 15.629C24.0867 16.2032 25.6078 17.4688 26.4145 19.1798C26.9446 20.3048 27.0598 21.2774 27.0598 24.6173C27.0598 26.961 27.0944 27.7579 27.2211 28.0509C27.3133 28.2618 28.8805 29.9376 30.7588 31.836C34.0545 35.1524 34.5039 35.5274 34.8842 35.293C34.9533 35.2462 36.509 33.711 38.3528 31.8829C40.5537 29.6915 41.7752 28.3907 41.925 28.0743C42.144 27.629 42.1555 27.3477 42.1555 24.2188C42.1555 21.5235 42.1901 20.7032 42.3399 20.1173C42.8239 18.1837 44.2989 16.5782 46.2233 15.8399C47.318 15.4298 48.7815 15.3477 54.1975 15.3829L59.2678 15.418L59.3024 21.4532C59.3139 25.461 59.2908 27.6993 59.1987 28.1095C58.8875 29.668 57.6545 31.3321 56.2602 32.0821C55.0041 32.7618 54.5778 32.8204 50.7865 32.8204C48.6317 32.8204 47.2373 32.8673 47.0299 32.9493C46.6612 33.0899 39.7701 40.0274 39.6664 40.3555C39.6088 40.543 40.2887 41.293 42.9737 44.0352C45.1055 46.2032 46.5344 47.5626 46.834 47.7032C47.2604 47.9141 47.5485 47.9376 50.5791 47.9376C54.1283 47.9376 54.7967 48.0196 55.9145 48.5938C57.1821 49.2384 58.0924 50.1876 58.7147 51.4766C59.3139 52.7306 59.3254 52.836 59.3254 59.2696V65.2813H53.3563C46.8686 65.2813 46.7533 65.2696 45.4051 64.6016C44.5293 64.1798 43.3194 62.9962 42.8699 62.1407C42.2362 60.922 42.167 60.4298 42.144 56.8556C42.1324 55.0743 42.0979 53.4102 42.0748 53.1524C42.0172 52.7188 41.7406 52.4141 38.4795 49.0743C35.276 45.8165 34.9188 45.4766 34.5731 45.4766C34.2274 45.4766 33.8701 45.8048 30.9086 48.7813C29.0994 50.6095 27.4977 52.3087 27.3479 52.5665C27.0828 53.0235 27.0713 53.1056 27.0252 56.6095C26.9906 59.6095 26.9561 60.2891 26.7832 60.8282C26.1149 62.9493 24.4555 64.5548 22.3697 65.1056C21.8281 65.2462 20.6528 65.2813 15.7322 65.2813H9.76311L9.79768 59.211C9.83225 53.211 9.84377 53.1407 10.1088 52.3907C10.8694 50.1993 12.5518 48.6173 14.6375 48.1134C15.1906 47.9845 16.1586 47.9376 18.6246 47.9376C21.1598 47.9376 21.9664 47.9024 22.2545 47.7735C22.4619 47.6798 24.1674 46.0274 26.0688 44.0938C29.0533 41.047 29.5028 40.543 29.4451 40.3087C29.353 39.9571 22.5887 33.1016 22.1739 32.9376C21.978 32.8673 20.4799 32.8204 18.3711 32.8204C15.5018 32.8204 14.7758 32.7852 14.2572 32.6329C12.16 32.0001 10.6735 30.4884 10.0397 28.3555C9.87834 27.8165 9.84377 26.8321 9.8092 21.6993C9.78616 18.3946 9.78616 15.6055 9.82073 15.5118C9.92444 15.2423 21.1828 15.3477 22.1393 15.629ZM68.8553 16.0274C68.8207 16.1446 68.7977 16.0743 68.7977 15.8868C68.7977 15.6876 68.8207 15.6055 68.8553 15.6759C68.8783 15.7579 68.8783 15.922 68.8553 16.0274ZM44.2297 16.8126C44.2297 16.836 44.1375 16.9298 44.0338 17.0118C43.8494 17.1641 43.8379 17.1524 43.9877 16.9649C44.1375 16.7774 44.2297 16.7188 44.2297 16.8126ZM68.8553 17.0235C68.8207 17.1173 68.7862 17.0821 68.7862 16.9532C68.7746 16.8243 68.8092 16.754 68.8438 16.8009C68.8783 16.836 68.8899 16.9415 68.8553 17.0235ZM68.8553 17.4923C68.8207 17.586 68.7862 17.5509 68.7862 17.422C68.7746 17.293 68.8092 17.2227 68.8438 17.2696C68.8783 17.3048 68.8899 17.4102 68.8553 17.4923ZM34.9418 18.336C35.6102 20.0587 35.6217 20.1055 35.6678 26.2462L35.7139 31.918L35.1608 32.4923L34.6192 33.0548L34.066 32.504L33.5129 31.9532V26.668C33.5129 23.6563 33.5705 21.0665 33.6281 20.6329C33.7549 19.8243 34.4463 17.586 34.5615 17.586C34.6076 17.586 34.769 17.9259 34.9418 18.336ZM36.5897 18.6641C36.5551 18.7579 36.5205 18.7227 36.5205 18.5938C36.509 18.4649 36.5436 18.3946 36.5781 18.4415C36.6127 18.4766 36.6242 18.5821 36.5897 18.6641ZM68.8553 19.3087C68.8207 19.4259 68.7977 19.3555 68.7977 19.168C68.7977 18.9688 68.8207 18.8868 68.8553 18.9571C68.8783 19.0391 68.8783 19.2032 68.8553 19.3087ZM68.8553 20.0118C68.8207 20.129 68.7977 20.0587 68.7977 19.8712C68.7977 19.672 68.8207 19.5899 68.8553 19.6602C68.8783 19.7423 68.8783 19.9063 68.8553 20.0118ZM68.8553 21.1251C68.8323 21.2774 68.8092 21.1837 68.8092 20.9259C68.7977 20.668 68.8207 20.5509 68.8553 20.6563C68.8783 20.7735 68.8783 20.9845 68.8553 21.1251ZM68.8553 21.711C68.8207 21.8048 68.7862 21.7696 68.7862 21.6407C68.7746 21.5118 68.8092 21.4415 68.8438 21.4884C68.8783 21.5235 68.8899 21.629 68.8553 21.711ZM68.8553 22.1798C68.8207 22.2735 68.7862 22.2384 68.7862 22.1095C68.7746 21.9805 68.8092 21.9102 68.8438 21.9571C68.8783 21.9923 68.8899 22.0977 68.8553 22.1798ZM68.8553 23.0001C68.8323 23.1524 68.8092 23.0587 68.8092 22.8009C68.7977 22.543 68.8207 22.4259 68.8553 22.5313C68.8783 22.6485 68.8783 22.8595 68.8553 23.0001ZM68.8553 23.7032C68.8207 23.7852 68.7977 23.7266 68.7977 23.5626C68.7977 23.3985 68.8207 23.3399 68.8553 23.4102C68.8783 23.4923 68.8783 23.6329 68.8553 23.7032ZM68.8553 26.8673C68.8207 26.961 68.7862 26.9259 68.7862 26.797C68.7746 26.668 68.8092 26.5977 68.8438 26.6446C68.8783 26.6798 68.8899 26.7852 68.8553 26.8673ZM8.35725 27.1016C8.32268 27.1954 8.28811 27.1602 8.28811 27.0313C8.27659 26.9024 8.31116 26.8321 8.34573 26.879C8.3803 26.9141 8.39182 27.0196 8.35725 27.1016ZM9.8553 28.5079C9.82073 28.6016 9.78616 28.5665 9.78616 28.4376C9.77463 28.3087 9.8092 28.2384 9.84377 28.2852C9.87834 28.3204 9.88987 28.4259 9.8553 28.5079ZM1.55842 28.918C1.52385 29.0352 1.5008 28.9415 1.5008 28.7188C1.5008 28.4962 1.52385 28.4024 1.55842 28.5079C1.58147 28.6251 1.58147 28.8126 1.55842 28.918ZM8.58772 28.6251C8.55315 28.7188 8.51858 28.6837 8.51858 28.5548C8.50705 28.4259 8.54162 28.3555 8.57619 28.4024C8.61076 28.4376 8.62229 28.543 8.58772 28.6251ZM17.6912 33.1368C17.4608 33.1602 17.092 33.1602 16.8846 33.1368C16.6887 33.1134 16.8846 33.0899 17.3225 33.0899C17.7719 33.0899 17.9332 33.1134 17.6912 33.1368ZM47.5369 33.1251C47.5024 33.1602 47.3987 33.172 47.318 33.1368C47.2258 33.1016 47.2604 33.0665 47.3871 33.0665C47.5139 33.0548 47.583 33.0899 47.5369 33.1251ZM49.4498 33.1368C49.3692 33.1602 49.2078 33.1602 49.1041 33.1368C48.9889 33.1016 49.058 33.0782 49.2424 33.0782C49.4383 33.0782 49.519 33.1016 49.4498 33.1368ZM50.1873 33.1251C50.1528 33.1602 50.049 33.172 49.9684 33.1368C49.8762 33.1016 49.9108 33.0665 50.0375 33.0665C50.1643 33.0548 50.2334 33.0899 50.1873 33.1251ZM52.2731 33.1368C51.9043 33.1602 51.3051 33.1602 50.9479 33.1368C50.5791 33.1134 50.8787 33.1016 51.6047 33.1016C52.3307 33.1016 52.6303 33.1134 52.2731 33.1368ZM13.8885 34.0626C13.8539 34.0977 13.7502 34.1095 13.6696 34.0743C13.5774 34.0391 13.6119 34.004 13.7387 34.004C13.8655 33.9923 13.9346 34.0274 13.8885 34.0626ZM16.0895 34.4259C15.9742 34.4493 15.7899 34.4493 15.6862 34.4259C15.5709 34.3907 15.6631 34.3673 15.8821 34.3673C16.101 34.3673 16.1932 34.3907 16.0895 34.4259ZM18.6246 34.4259C18.5094 34.4493 18.325 34.4493 18.2213 34.4259C18.1061 34.3907 18.1983 34.3673 18.4172 34.3673C18.6362 34.3673 18.7283 34.3907 18.6246 34.4259ZM50.533 34.4259C50.3026 34.4493 49.9338 34.4493 49.7264 34.4259C49.5305 34.4024 49.7264 34.379 50.1643 34.379C50.6137 34.379 50.775 34.4024 50.533 34.4259ZM52.1002 34.4259C51.9504 34.4493 51.6969 34.4493 51.524 34.4259C51.3397 34.4024 51.4664 34.379 51.7776 34.379C52.1002 34.379 52.2385 34.4024 52.1002 34.4259ZM52.7225 34.4141C52.6879 34.4493 52.5842 34.461 52.5035 34.4259C52.4114 34.3907 52.4459 34.3555 52.5727 34.3555C52.6994 34.3438 52.7686 34.379 52.7225 34.4141ZM63.2434 37.0391C63.2434 37.0977 63.1858 37.1563 63.1166 37.1563C63.059 37.1563 63.036 37.0977 63.0705 37.0391C63.1051 36.9688 63.1627 36.922 63.1973 36.922C63.2203 36.922 63.2434 36.9688 63.2434 37.0391ZM7.29709 37.9766C7.33166 38.0352 7.32014 38.0938 7.251 38.0938C7.19338 38.0938 7.10119 38.0352 7.06662 37.9766C7.03205 37.9063 7.04358 37.8595 7.11272 37.8595C7.17034 37.8595 7.26252 37.9063 7.29709 37.9766ZM12.1369 38.797C11.8258 38.9376 11.6414 38.9376 11.8489 38.797C11.941 38.7384 12.1024 38.6915 12.1946 38.6915C12.3098 38.6915 12.2867 38.7266 12.1369 38.797ZM60.4201 38.9141C60.3856 38.9727 60.2819 39.0313 60.2127 39.0313C60.1321 39.0313 60.1436 38.9845 60.2473 38.9141C60.4662 38.7735 60.5123 38.7735 60.4201 38.9141ZM17.2649 39.2657C17.2649 39.336 16.9076 39.3712 16.3776 39.3595L15.4787 39.336L16.343 39.2657C16.8155 39.2188 17.2188 39.1837 17.2418 39.172C17.2533 39.1602 17.2649 39.1954 17.2649 39.2657ZM18.0715 39.2657C18.0715 39.3243 17.9793 39.3829 17.8756 39.3829C17.7028 39.3829 17.6912 39.3595 17.841 39.2657C18.06 39.1251 18.0715 39.1251 18.0715 39.2657ZM18.5324 39.2891C18.5324 39.336 18.4864 39.3829 18.4287 39.3829C18.3596 39.3829 18.2905 39.336 18.2559 39.2891C18.2213 39.2305 18.2674 39.1837 18.3596 39.1837C18.4518 39.1837 18.5324 39.2305 18.5324 39.2891ZM20.3416 39.3009C20.3762 39.336 20.0881 39.3595 19.6963 39.3595C19.316 39.3477 18.9934 39.3009 18.9934 39.254C18.9934 39.1602 20.2379 39.2071 20.3416 39.3009ZM21.2981 39.2774C21.2981 39.4063 20.6412 39.418 20.5721 39.2891C20.5375 39.2423 20.6873 39.1954 20.9063 39.1837C21.1252 39.172 21.2981 39.2188 21.2981 39.2774ZM21.759 39.336C21.759 39.3595 21.6783 39.3829 21.5862 39.3829C21.494 39.3829 21.4133 39.336 21.4133 39.2657C21.4133 39.2071 21.494 39.1837 21.5862 39.2188C21.6783 39.2657 21.759 39.3126 21.759 39.336ZM23.5912 39.336C23.6143 39.3595 23.2916 39.3712 22.8653 39.3712C22.4504 39.3595 22.0701 39.3009 22.0356 39.2423C21.9664 39.1368 23.476 39.2305 23.5912 39.336ZM25.3313 39.336C25.3313 39.3595 25.1699 39.3829 24.974 39.3829C24.7897 39.3829 24.6514 39.336 24.686 39.2774C24.7436 39.1837 25.3313 39.2423 25.3313 39.336ZM46.5344 39.336C46.5344 39.3595 46.35 39.3829 46.1311 39.3829C45.9121 39.3829 45.7278 39.336 45.7278 39.2891C45.7278 39.2423 45.9121 39.2188 46.1311 39.2423C46.35 39.2657 46.5344 39.3126 46.5344 39.336ZM48.2629 39.2657C47.8711 39.3946 47.5485 39.4063 47.6176 39.2891C47.6522 39.2305 47.8711 39.1837 48.1131 39.1837C48.4934 39.172 48.5164 39.1837 48.2629 39.2657ZM49.3 39.2657C49.3 39.418 48.9543 39.418 48.7239 39.2657C48.5971 39.1837 48.6432 39.1485 48.9313 39.1485C49.1272 39.1485 49.3 39.1954 49.3 39.2657ZM52.1809 39.336C52.1809 39.3595 51.6969 39.3712 51.1207 39.3595C50.1412 39.3477 50.1067 39.336 50.7405 39.2774C51.4088 39.2071 52.1809 39.2423 52.1809 39.336ZM49.9569 39.336C49.9223 39.3712 49.8186 39.3829 49.7379 39.3477C49.6457 39.3126 49.6803 39.2774 49.8071 39.2774C49.9338 39.2657 50.003 39.3009 49.9569 39.336ZM53.5291 39.336C53.4946 39.3712 53.3908 39.3829 53.3102 39.3477C53.218 39.3126 53.2526 39.2774 53.3793 39.2774C53.5061 39.2657 53.5752 39.3009 53.5291 39.336ZM26.2071 39.7579C26.9446 40.3321 26.9446 40.3555 26.5182 40.8126L26.2071 41.1407H20.6182C17.5184 41.1407 14.7067 41.0938 14.3264 41.0235C13.4045 40.8712 11.9526 40.4259 12.0217 40.3204C12.1024 40.1798 14.0613 39.7227 14.9832 39.6173C15.4442 39.5704 18.083 39.5235 20.8487 39.5118L25.8729 39.5001L26.2071 39.7579ZM53.8633 39.6055C54.8889 39.711 56.8709 40.1563 57.0553 40.3204C57.1705 40.4259 55.6264 40.8946 54.693 41.0352C54.2897 41.0938 51.4895 41.1407 48.4588 41.1407H42.9506L42.5473 40.836C42.3283 40.6602 42.1555 40.4845 42.1555 40.4259C42.1555 40.3673 42.3514 40.1446 42.5934 39.9102L43.0197 39.5118H47.9172C50.6137 39.5118 53.2871 39.5587 53.8633 39.6055ZM7.87326 40.7891C7.83869 40.8477 7.73498 40.9063 7.66584 40.9063C7.58518 40.9063 7.5967 40.8595 7.70041 40.7891C7.91936 40.6485 7.96545 40.6485 7.87326 40.7891ZM11.0076 41.797C11.5262 42.0196 12.4711 42.3477 13.0819 42.5118C14.1996 42.8282 14.2457 42.8282 19.4543 42.8868L24.6975 42.9571L23.0727 44.5626L21.4363 46.1798H18.2789C15.4903 46.1798 15.0063 46.2032 14.1996 46.4141C10.8233 47.2813 8.55315 49.9298 8.16135 53.4454C8.01155 54.8165 8.01155 65.9962 8.16135 66.4063C8.40334 67.0509 8.17287 67.0274 15.2252 67.0391C22.485 67.0391 22.6463 67.0274 24.2596 66.2774C26.2416 65.3516 27.5438 63.8634 28.2928 61.7071C28.6039 60.7813 28.6155 60.7345 28.6731 57.172L28.7307 53.5626L30.2287 52.0391L31.7268 50.5157L31.7959 55.3438C31.842 59.3048 31.8881 60.3477 32.0494 61.0626C32.3375 62.3165 32.6832 63.3477 33.1211 64.2501C33.3401 64.6837 33.5129 65.1173 33.5129 65.1993C33.5129 65.4454 32.3606 67.086 31.5078 68.047C29.1455 70.6954 26.2071 72.4298 23.1533 72.9571C22.2776 73.1095 21.0215 73.1329 15.0524 73.1095C7.11272 73.0626 7.37776 73.086 5.51096 72.1602C4.26643 71.5274 3.04494 70.3438 2.52639 69.2306C1.76584 67.6016 1.76584 67.6602 1.76584 59.3048V51.7462L2.07698 50.5509C2.42268 49.1915 3.16018 47.5157 3.89768 46.4024C4.54299 45.4415 6.1678 43.7306 7.08967 43.0509C8.00002 42.3829 9.67092 41.3985 9.88987 41.3868C9.98205 41.3751 10.4776 41.5626 11.0076 41.797ZM17.6451 41.4571C17.5645 41.4805 17.4031 41.4805 17.2994 41.4571C17.1842 41.422 17.2533 41.3985 17.4377 41.3985C17.6336 41.3985 17.7143 41.422 17.6451 41.4571ZM20.5836 41.4571C20.4108 41.4805 20.0996 41.4805 19.8922 41.4571C19.6848 41.4337 19.8231 41.4102 20.2033 41.4102C20.5836 41.4102 20.7565 41.4337 20.5836 41.4571ZM46.2694 41.4454C46.2348 41.4805 46.1311 41.4923 46.0504 41.4571C45.9582 41.422 45.9928 41.3868 46.1196 41.3868C46.2463 41.3751 46.3155 41.4102 46.2694 41.4454ZM46.7303 41.4454C46.6957 41.4805 46.592 41.4923 46.5114 41.4571C46.4192 41.422 46.4537 41.3868 46.5805 41.3868C46.7072 41.3751 46.7764 41.4102 46.7303 41.4454ZM47.5485 41.4571C47.4332 41.4805 47.2258 41.4805 47.0875 41.4571C46.9377 41.4337 47.0299 41.4102 47.2834 41.4102C47.5369 41.3985 47.6522 41.422 47.5485 41.4571ZM48.4127 41.4571C48.3321 41.4805 48.1707 41.4805 48.067 41.4571C47.9518 41.422 48.0209 41.3985 48.2053 41.3985C48.4012 41.3985 48.4819 41.422 48.4127 41.4571ZM51.2936 41.4571C51.2129 41.4805 51.0746 41.4805 51.0055 41.4571C50.9248 41.422 50.9824 41.3985 51.1438 41.3985C51.3051 41.3985 51.3627 41.422 51.2936 41.4571ZM51.985 41.4571C51.9043 41.4805 51.766 41.4805 51.6969 41.4571C51.6162 41.422 51.6739 41.3985 51.8352 41.3985C51.9965 41.3985 52.0541 41.422 51.985 41.4571ZM60.3741 41.9727C62.9899 43.5665 65.0065 45.6641 66.1588 47.9962C66.6313 48.9571 67.1614 50.8321 67.3457 52.1798C67.6108 54.1134 67.5186 66.1251 67.2305 67.3907C66.5506 70.379 64.4303 72.336 61.1922 72.9688C59.9016 73.2149 47.4447 73.2032 46.0043 72.9571C44.0453 72.6056 42.2131 71.8438 40.4615 70.6485C39.3322 69.8868 37.258 67.7657 36.3016 66.4298L35.5871 65.4102L36.0365 64.379C36.5551 63.172 36.8893 62.1641 37.1658 60.9454C37.3156 60.2306 37.3733 59.1759 37.4194 55.2852L37.4885 50.504L38.5371 51.5938C39.1133 52.1915 39.7586 52.8946 39.9776 53.1407L40.3694 53.5977L40.4385 57.1837C40.4961 60.6641 40.5076 60.7931 40.8073 61.7071C41.6485 64.2852 43.6305 66.0899 46.4076 66.8165C47.2028 67.0274 47.7559 67.0391 53.9209 67.0391H60.5815L60.8235 66.7227C61.0655 66.4063 61.0655 66.3829 61.0309 59.4923L60.9963 52.5665L60.6852 51.6173C59.867 49.1915 58.1155 47.4454 55.5227 46.5196C54.8198 46.2735 54.5662 46.2501 51.2129 46.2032L47.6522 46.1563L46.0158 44.5274L44.368 42.8985H49.0926C52.8723 42.8985 54.0592 42.8634 54.9811 42.711C56.0643 42.5352 58.0924 41.9024 58.7492 41.5391C59.1987 41.293 59.3369 41.3282 60.3741 41.9727ZM62.6903 41.6563C62.7709 41.6095 62.7824 41.6329 62.7364 41.7149C62.6326 41.879 62.3215 41.6798 62.3215 41.4454C62.3215 41.3751 62.3791 41.4102 62.4483 41.5274C62.5174 41.6329 62.6211 41.6915 62.6903 41.6563ZM22.6809 45.2891C22.6809 45.3126 22.5887 45.4063 22.485 45.4884C22.3006 45.6407 22.2891 45.629 22.4389 45.4415C22.5887 45.254 22.6809 45.1954 22.6809 45.2891ZM35.7024 54.1837C35.7024 59.0001 35.6793 59.5391 35.4719 60.6056C35.2069 61.8829 34.7805 63.1837 34.6076 63.1954C34.4463 63.1954 33.9854 61.8595 33.7319 60.6524C33.536 59.7032 33.5129 59.047 33.5129 54.2657V48.9454L34.0545 48.3829L34.5961 47.8204L35.1492 48.3712L35.7024 48.922V54.1837ZM31.4387 50.5509C31.4387 50.5743 31.3235 50.6915 31.1852 50.8204L30.9201 51.0431L31.1391 50.7735C31.3465 50.5274 31.4387 50.4571 31.4387 50.5509ZM67.703 53.0001C67.6684 53.0938 67.6338 53.0587 67.6338 52.9298C67.6223 52.8009 67.6569 52.7306 67.6914 52.7774C67.726 52.8126 67.7375 52.9181 67.703 53.0001ZM68.8553 54.8165C68.8207 54.9337 68.7977 54.8634 68.7977 54.6759C68.7977 54.4766 68.8207 54.3946 68.8553 54.4649C68.8783 54.547 68.8783 54.711 68.8553 54.8165ZM68.8553 60.0899C68.8207 60.2071 68.7977 60.1368 68.7977 59.9493C68.7977 59.7501 68.8207 59.6681 68.8553 59.7384C68.8783 59.8204 68.8783 59.9845 68.8553 60.0899ZM43.4231 63.3009C43.4231 63.3712 43.377 63.3829 43.3078 63.3477C43.2502 63.3126 43.1926 63.2188 43.1926 63.1602C43.1926 63.0899 43.2502 63.0782 43.3078 63.1134C43.377 63.1485 43.4231 63.2423 43.4231 63.3009ZM22.7615 73.3204C22.727 73.3556 22.6233 73.3673 22.5426 73.3321C22.4504 73.297 22.485 73.2618 22.6117 73.2618C22.7385 73.2501 22.8076 73.2852 22.7615 73.3204ZM13.0358 74.7384C12.9551 74.7618 12.8168 74.7618 12.7477 74.7384C12.667 74.7032 12.7246 74.6798 12.886 74.6798C13.0473 74.6798 13.1049 74.7032 13.0358 74.7384ZM15.2252 74.7384C15.0754 74.7618 14.8219 74.7618 14.649 74.7384C14.4647 74.7149 14.5914 74.6915 14.9026 74.6915C15.2252 74.6915 15.3635 74.7149 15.2252 74.7384ZM17.4608 74.7266C17.4262 74.7618 17.3225 74.7735 17.2418 74.7384C17.1496 74.7032 17.1842 74.6681 17.311 74.6681C17.4377 74.6563 17.5069 74.6915 17.4608 74.7266Z" fill="black"/>
<path d="M90.6364 14.3636V26H89.2727L82.9318 16.8636H82.8182V26H81.4091V14.3636H82.7727L89.1364 23.5227H89.25V14.3636H90.6364ZM95.8423 26.2045C95.2893 26.2045 94.7874 26.1004 94.3366 25.892C93.8859 25.6799 93.5279 25.375 93.2628 24.9773C92.9976 24.5758 92.8651 24.0909 92.8651 23.5227C92.8651 23.0227 92.9635 22.6174 93.1605 22.3068C93.3575 21.9924 93.6207 21.7462 93.9503 21.5682C94.2798 21.3902 94.6435 21.2576 95.0412 21.1705C95.4427 21.0795 95.8461 21.0076 96.2514 20.9545C96.7817 20.8864 97.2116 20.8352 97.5412 20.8011C97.8745 20.7633 98.117 20.7008 98.2685 20.6136C98.4238 20.5265 98.5014 20.375 98.5014 20.1591V20.1136C98.5014 19.553 98.348 19.1174 98.0412 18.8068C97.7382 18.4962 97.2779 18.3409 96.6605 18.3409C96.0204 18.3409 95.5185 18.4811 95.1548 18.7614C94.7912 19.0417 94.5355 19.3409 94.3878 19.6591L93.1151 19.2045C93.3423 18.6742 93.6454 18.2614 94.0241 17.9659C94.4067 17.6667 94.8234 17.4583 95.2741 17.3409C95.7287 17.2197 96.1757 17.1591 96.6151 17.1591C96.8954 17.1591 97.2173 17.1932 97.581 17.2614C97.9484 17.3258 98.3026 17.4602 98.6435 17.6648C98.9882 17.8693 99.2741 18.178 99.5014 18.5909C99.7287 19.0038 99.8423 19.5568 99.8423 20.25V26H98.5014V24.8182H98.4332C98.3423 25.0076 98.1908 25.2102 97.9787 25.4261C97.7666 25.642 97.4844 25.8258 97.1321 25.9773C96.7798 26.1288 96.3499 26.2045 95.8423 26.2045ZM96.0469 25C96.5772 25 97.0241 24.8958 97.3878 24.6875C97.7552 24.4792 98.0317 24.2102 98.2173 23.8807C98.4067 23.5511 98.5014 23.2045 98.5014 22.8409V21.6136C98.4446 21.6818 98.3196 21.7443 98.1264 21.8011C97.937 21.8542 97.7173 21.9015 97.4673 21.9432C97.2211 21.9811 96.9806 22.0152 96.7457 22.0455C96.5147 22.072 96.3272 22.0947 96.1832 22.1136C95.8348 22.1591 95.509 22.233 95.206 22.3352C94.9067 22.4337 94.6643 22.5833 94.4787 22.7841C94.2969 22.9811 94.206 23.25 94.206 23.5909C94.206 24.0568 94.3783 24.4091 94.723 24.6477C95.0715 24.8826 95.5128 25 96.0469 25ZM106.085 17.2727V18.4091H101.562V17.2727H106.085ZM102.881 15.1818H104.222V23.5C104.222 23.8788 104.277 24.1629 104.386 24.3523C104.5 24.5379 104.644 24.6629 104.818 24.7273C104.996 24.7879 105.184 24.8182 105.381 24.8182C105.528 24.8182 105.65 24.8106 105.744 24.7955C105.839 24.7765 105.915 24.7614 105.972 24.75L106.244 25.9545C106.153 25.9886 106.027 26.0227 105.864 26.0568C105.701 26.0947 105.494 26.1136 105.244 26.1136C104.866 26.1136 104.494 26.0322 104.131 25.8693C103.771 25.7064 103.472 25.4583 103.233 25.125C102.998 24.7917 102.881 24.3712 102.881 23.8636V15.1818ZM113.602 22.4318V17.2727H114.943V26H113.602V24.5227H113.511C113.307 24.9659 112.989 25.3428 112.557 25.6534C112.125 25.9602 111.58 26.1136 110.92 26.1136C110.375 26.1136 109.89 25.9943 109.466 25.7557C109.042 25.5133 108.708 25.1496 108.466 24.6648C108.223 24.1761 108.102 23.5606 108.102 22.8182V17.2727H109.443V22.7273C109.443 23.3636 109.621 23.8712 109.977 24.25C110.337 24.6288 110.795 24.8182 111.352 24.8182C111.686 24.8182 112.025 24.733 112.369 24.5625C112.718 24.392 113.009 24.1307 113.244 23.7784C113.483 23.4261 113.602 22.9773 113.602 22.4318ZM117.399 26V17.2727H118.695V18.5909H118.786C118.945 18.1591 119.232 17.8087 119.649 17.5398C120.066 17.2708 120.536 17.1364 121.058 17.1364C121.157 17.1364 121.28 17.1383 121.428 17.142C121.575 17.1458 121.687 17.1515 121.763 17.1591V18.5227C121.717 18.5114 121.613 18.4943 121.45 18.4716C121.291 18.4451 121.123 18.4318 120.945 18.4318C120.52 18.4318 120.142 18.5208 119.808 18.6989C119.479 18.8731 119.217 19.1155 119.024 19.4261C118.835 19.733 118.74 20.0833 118.74 20.4773V26H117.399ZM125.92 26.2045C125.367 26.2045 124.866 26.1004 124.415 25.892C123.964 25.6799 123.606 25.375 123.341 24.9773C123.076 24.5758 122.943 24.0909 122.943 23.5227C122.943 23.0227 123.042 22.6174 123.239 22.3068C123.436 21.9924 123.699 21.7462 124.028 21.5682C124.358 21.3902 124.722 21.2576 125.119 21.1705C125.521 21.0795 125.924 21.0076 126.33 20.9545C126.86 20.8864 127.29 20.8352 127.619 20.8011C127.953 20.7633 128.195 20.7008 128.347 20.6136C128.502 20.5265 128.58 20.375 128.58 20.1591V20.1136C128.58 19.553 128.426 19.1174 128.119 18.8068C127.816 18.4962 127.356 18.3409 126.739 18.3409C126.098 18.3409 125.597 18.4811 125.233 18.7614C124.869 19.0417 124.614 19.3409 124.466 19.6591L123.193 19.2045C123.42 18.6742 123.723 18.2614 124.102 17.9659C124.485 17.6667 124.902 17.4583 125.352 17.3409C125.807 17.2197 126.254 17.1591 126.693 17.1591C126.973 17.1591 127.295 17.1932 127.659 17.2614C128.027 17.3258 128.381 17.4602 128.722 17.6648C129.066 17.8693 129.352 18.178 129.58 18.5909C129.807 19.0038 129.92 19.5568 129.92 20.25V26H128.58V24.8182H128.511C128.42 25.0076 128.269 25.2102 128.057 25.4261C127.845 25.642 127.563 25.8258 127.21 25.9773C126.858 26.1288 126.428 26.2045 125.92 26.2045ZM126.125 25C126.655 25 127.102 24.8958 127.466 24.6875C127.833 24.4792 128.11 24.2102 128.295 23.8807C128.485 23.5511 128.58 23.2045 128.58 22.8409V21.6136C128.523 21.6818 128.398 21.7443 128.205 21.8011C128.015 21.8542 127.795 21.9015 127.545 21.9432C127.299 21.9811 127.059 22.0152 126.824 22.0455C126.593 22.072 126.405 22.0947 126.261 22.1136C125.913 22.1591 125.587 22.233 125.284 22.3352C124.985 22.4337 124.742 22.5833 124.557 22.7841C124.375 22.9811 124.284 23.25 124.284 23.5909C124.284 24.0568 124.456 24.4091 124.801 24.6477C125.15 24.8826 125.591 25 126.125 25ZM89.0455 33.3636H90.4545V41.0682C90.4545 41.8636 90.267 42.5739 89.892 43.1989C89.5208 43.8201 88.9962 44.3106 88.3182 44.6705C87.6402 45.0265 86.8447 45.2045 85.9318 45.2045C85.0189 45.2045 84.2235 45.0265 83.5455 44.6705C82.8674 44.3106 82.3409 43.8201 81.9659 43.1989C81.5947 42.5739 81.4091 41.8636 81.4091 41.0682V33.3636H82.8182V40.9545C82.8182 41.5227 82.9432 42.0284 83.1932 42.4716C83.4432 42.911 83.7992 43.2576 84.2614 43.5114C84.7273 43.7614 85.2841 43.8864 85.9318 43.8864C86.5795 43.8864 87.1364 43.7614 87.6023 43.5114C88.0682 43.2576 88.4242 42.911 88.6705 42.4716C88.9205 42.0284 89.0455 41.5227 89.0455 40.9545V33.3636ZM99.2685 38.2273L98.0639 38.5682C97.9882 38.3674 97.8764 38.1723 97.7287 37.983C97.5848 37.7898 97.3878 37.6307 97.1378 37.5057C96.8878 37.3807 96.5677 37.3182 96.1776 37.3182C95.6435 37.3182 95.1984 37.4413 94.8423 37.6875C94.4901 37.9299 94.3139 38.2386 94.3139 38.6136C94.3139 38.947 94.4351 39.2102 94.6776 39.4034C94.92 39.5966 95.2988 39.7576 95.8139 39.8864L97.1094 40.2045C97.8897 40.3939 98.4711 40.6837 98.8537 41.0739C99.2363 41.4602 99.4276 41.9583 99.4276 42.5682C99.4276 43.0682 99.2836 43.5152 98.9957 43.9091C98.7116 44.303 98.3139 44.6136 97.8026 44.8409C97.2912 45.0682 96.6965 45.1818 96.0185 45.1818C95.1283 45.1818 94.3916 44.9886 93.8082 44.6023C93.2249 44.2159 92.8556 43.6515 92.7003 42.9091L93.973 42.5909C94.0942 43.0606 94.3234 43.4129 94.6605 43.6477C95.0014 43.8826 95.4465 44 95.9957 44C96.6207 44 97.117 43.8674 97.4844 43.6023C97.8556 43.3333 98.0412 43.0114 98.0412 42.6364C98.0412 42.3333 97.9351 42.0795 97.723 41.875C97.5109 41.6667 97.1851 41.5114 96.7457 41.4091L95.2912 41.0682C94.492 40.8788 93.9048 40.5852 93.5298 40.1875C93.1586 39.786 92.973 39.2841 92.973 38.6818C92.973 38.1894 93.1113 37.7538 93.3878 37.375C93.6681 36.9962 94.0488 36.6989 94.5298 36.483C95.0147 36.267 95.5639 36.1591 96.1776 36.1591C97.0412 36.1591 97.7192 36.3485 98.2116 36.7273C98.7079 37.1061 99.0601 37.6061 99.2685 38.2273ZM95.5639 35.0909L96.9503 32.4545H98.5185L96.7457 35.0909H95.5639ZM101.446 45V36.2727H102.741V37.6364H102.855C103.037 37.1705 103.33 36.8087 103.736 36.5511C104.141 36.2898 104.628 36.1591 105.196 36.1591C105.772 36.1591 106.251 36.2898 106.634 36.5511C107.02 36.8087 107.321 37.1705 107.537 37.6364H107.628C107.851 37.1856 108.187 36.8277 108.634 36.5625C109.08 36.2936 109.616 36.1591 110.241 36.1591C111.022 36.1591 111.66 36.4034 112.156 36.892C112.652 37.3769 112.901 38.1326 112.901 39.1591V45H111.56V39.1591C111.56 38.5152 111.384 38.0549 111.031 37.7784C110.679 37.5019 110.264 37.3636 109.787 37.3636C109.173 37.3636 108.698 37.5492 108.361 37.9205C108.024 38.2879 107.855 38.7538 107.855 39.3182V45H106.491V39.0227C106.491 38.5265 106.33 38.1269 106.009 37.8239C105.687 37.517 105.272 37.3636 104.764 37.3636C104.416 37.3636 104.09 37.4564 103.787 37.642C103.488 37.8277 103.245 38.0852 103.06 38.4148C102.878 38.7405 102.787 39.1174 102.787 39.5455V45H101.446ZM115.352 45V36.2727H116.693V45H115.352ZM116.034 34.8182C115.773 34.8182 115.547 34.7292 115.358 34.5511C115.172 34.3731 115.08 34.1591 115.08 33.9091C115.08 33.6591 115.172 33.4451 115.358 33.267C115.547 33.089 115.773 33 116.034 33C116.295 33 116.519 33.089 116.705 33.267C116.894 33.4451 116.989 33.6591 116.989 33.9091C116.989 34.1591 116.894 34.3731 116.705 34.5511C116.519 34.7292 116.295 34.8182 116.034 34.8182ZM122.808 45.1818C121.967 45.1818 121.242 44.9962 120.632 44.625C120.026 44.25 119.558 43.7273 119.229 43.0568C118.903 42.3826 118.74 41.5985 118.74 40.7045C118.74 39.8106 118.903 39.0227 119.229 38.3409C119.558 37.6553 120.017 37.1212 120.604 36.7386C121.195 36.3523 121.884 36.1591 122.672 36.1591C123.126 36.1591 123.575 36.2348 124.018 36.3864C124.462 36.5379 124.865 36.7841 125.229 37.125C125.592 37.4621 125.882 37.9091 126.098 38.4659C126.314 39.0227 126.422 39.7083 126.422 40.5227V41.0909H119.695V39.9318H125.058C125.058 39.4394 124.96 39 124.763 38.6136C124.57 38.2273 124.293 37.9223 123.933 37.6989C123.577 37.4754 123.157 37.3636 122.672 37.3636C122.138 37.3636 121.676 37.4962 121.286 37.7614C120.899 38.0227 120.602 38.3636 120.393 38.7841C120.185 39.2045 120.081 39.6553 120.081 40.1364V40.9091C120.081 41.5682 120.195 42.1269 120.422 42.5852C120.653 43.0398 120.973 43.3864 121.382 43.625C121.791 43.8598 122.267 43.9773 122.808 43.9773C123.161 43.9773 123.479 43.928 123.763 43.8295C124.051 43.7273 124.299 43.5758 124.507 43.375C124.715 43.1705 124.876 42.9167 124.99 42.6136L126.286 42.9773C126.149 43.4167 125.92 43.803 125.598 44.1364C125.276 44.4659 124.878 44.7235 124.405 44.9091C123.931 45.0909 123.399 45.1818 122.808 45.1818ZM132.007 45.1818C131.189 45.1818 130.484 44.9886 129.893 44.6023C129.303 44.2159 128.848 43.6837 128.53 43.0057C128.212 42.3277 128.053 41.553 128.053 40.6818C128.053 39.7955 128.215 39.0133 128.541 38.3352C128.871 37.6534 129.329 37.1212 129.916 36.7386C130.507 36.3523 131.196 36.1591 131.984 36.1591C132.598 36.1591 133.151 36.2727 133.643 36.5C134.136 36.7273 134.539 37.0455 134.854 37.4545C135.168 37.8636 135.363 38.3409 135.439 38.8864H134.098C133.996 38.4886 133.768 38.1364 133.416 37.8295C133.068 37.5189 132.598 37.3636 132.007 37.3636C131.484 37.3636 131.026 37.5 130.632 37.7727C130.242 38.0417 129.937 38.4223 129.717 38.9148C129.501 39.4034 129.393 39.9773 129.393 40.6364C129.393 41.3106 129.5 41.8977 129.712 42.3977C129.928 42.8977 130.231 43.286 130.621 43.5625C131.015 43.839 131.477 43.9773 132.007 43.9773C132.356 43.9773 132.672 43.9167 132.956 43.7955C133.24 43.6742 133.481 43.5 133.678 43.2727C133.875 43.0455 134.015 42.7727 134.098 42.4545H135.439C135.363 42.9697 135.176 43.4337 134.876 43.8466C134.581 44.2557 134.189 44.5814 133.7 44.8239C133.215 45.0625 132.651 45.1818 132.007 45.1818ZM138.74 39.75V45H137.399V33.3636H138.74V37.6364H138.854C139.058 37.1856 139.365 36.8277 139.774 36.5625C140.187 36.2936 140.736 36.1591 141.422 36.1591C142.017 36.1591 142.537 36.2784 142.984 36.517C143.431 36.7519 143.778 37.1136 144.024 37.6023C144.274 38.0871 144.399 38.7045 144.399 39.4545V45H143.058V39.5455C143.058 38.8523 142.878 38.3163 142.518 37.9375C142.162 37.5549 141.668 37.3636 141.036 37.3636C140.596 37.3636 140.202 37.4564 139.854 37.642C139.509 37.8277 139.236 38.0985 139.036 38.4545C138.839 38.8106 138.74 39.2424 138.74 39.75ZM152.352 41.4318V36.2727H153.693V45H152.352V43.5227H152.261C152.057 43.9659 151.739 44.3428 151.307 44.6534C150.875 44.9602 150.33 45.1136 149.67 45.1136C149.125 45.1136 148.64 44.9943 148.216 44.7557C147.792 44.5133 147.458 44.1496 147.216 43.6648C146.973 43.1761 146.852 42.5606 146.852 41.8182V36.2727H148.193V41.7273C148.193 42.3636 148.371 42.8712 148.727 43.25C149.087 43.6288 149.545 43.8182 150.102 43.8182C150.436 43.8182 150.775 43.733 151.119 43.5625C151.468 43.392 151.759 43.1307 151.994 42.7784C152.233 42.4261 152.352 41.9773 152.352 41.4318Z" fill="black"/>
</svg>
